<?xml version="1.0" encoding="UTF-8"?>
<svg version="1.1" xmlns="http://www.w3.org/2000/svg" width="500" height="500">
<path d="M0 0 C10.04704716 7.31304268 17.42424326 17.22822304 20.46484375 29.390625 C21.72025124 37.83455621 21.60041879 46.33333741 21.57836914 54.84619141 C21.57808657 56.38459267 21.57824637 57.92299407 21.57881165 59.46139526 C21.57909689 63.60944313 21.57324443 67.7574617 21.56623769 71.9055028 C21.55995857 76.25099569 21.55939676 80.59648936 21.55821228 84.94198608 C21.55511235 93.1581639 21.5469171 101.37432831 21.53686279 109.59050024 C21.52565997 118.94968161 21.52018072 128.30886364 21.51516736 137.66805005 C21.50473329 156.90891595 21.48715991 176.14976939 21.46484375 195.390625 C22.50979492 195.38924231 22.50979492 195.38924231 23.57585621 195.38783169 C40.65960662 195.36558382 57.74335327 195.34912071 74.82711506 195.33881283 C83.08925718 195.33369338 91.35138954 195.32673548 99.61352539 195.31518555 C106.82896389 195.30510378 114.04439531 195.2987401 121.25984067 195.29653651 C125.0674704 195.29525187 128.87507989 195.29231341 132.68270302 195.28489494 C142.27749872 195.26717581 151.87045392 195.29187577 161.46484375 195.390625 C162.75028957 195.4033205 164.0357354 195.41601601 165.36013412 195.42909622 C169.04728014 195.47748831 172.73237592 195.55610044 176.41870117 195.64672852 C177.49497678 195.66044715 178.57125238 195.67416578 179.6801424 195.68830013 C193.01037698 196.10663497 203.69952375 202.06326361 212.77734375 211.703125 C220.60629881 220.98715858 223.85656889 231.18127632 223.77734375 243.203125 C223.7717041 244.09241699 223.76606445 244.98170898 223.76025391 245.89794922 C223.56512047 256.42549476 220.94805419 264.90285646 214.46484375 273.390625 C213.80484375 273.390625 213.14484375 273.390625 212.46484375 273.390625 C212.19285156 273.99132812 211.92085938 274.59203125 211.640625 275.2109375 C207.05637991 283.70930547 196.11638714 287.5067772 187.46484375 290.390625 C185.86345661 290.53888365 184.25713258 290.63646022 182.65029907 290.70359802 C181.6589263 290.74507241 180.66755352 290.7865468 179.64613914 290.82927799 C178.55844545 290.86813334 177.47075176 290.9069887 176.35009766 290.94702148 C175.20002039 290.98920272 174.04994312 291.03138395 172.86501503 291.07484341 C158.7650757 291.54295137 144.66410314 291.51944767 130.55852842 291.49201894 C126.70427358 291.48563824 122.85001737 291.48517026 118.99575806 291.48399353 C111.74342636 291.48092256 104.49111029 291.47276817 97.23878539 291.46264404 C88.96264681 291.45134895 80.68650736 291.44593919 72.41036296 291.44094861 C55.42851429 291.43058045 38.44668068 291.41306584 21.46484375 291.390625 C21.46760913 292.57862339 21.46760913 292.57862339 21.47043037 293.79062176 C21.51469476 313.10596776 21.54774173 332.42130358 21.56846809 351.73668957 C21.57875889 361.07765213 21.59277699 370.41858073 21.61572266 379.75952148 C21.63572403 387.90579242 21.64857614 396.05203875 21.65302074 404.19833356 C21.65561674 408.50744349 21.66167217 412.81648304 21.67630386 417.1255703 C21.68999467 421.19093943 21.69404344 425.25620996 21.69105911 429.32159996 C21.69160418 430.8045353 21.69551256 432.28747433 21.7032547 433.77038956 C21.78523893 450.3003485 20.35365238 465.230722 9.46484375 478.390625 C8.80484375 478.390625 8.14484375 478.390625 7.46484375 478.390625 C7.46484375 479.050625 7.46484375 479.710625 7.46484375 480.390625 C6.80484375 480.390625 6.14484375 480.390625 5.46484375 480.390625 C5.46484375 481.050625 5.46484375 481.710625 5.46484375 482.390625 C-3.93265623 491.57812498 -15.83307798 493.67521658 -28.44482422 493.7097168 C-38.90623024 493.54655339 -48.1159386 490.66376756 -56.53515625 484.390625 C-56.53515625 483.730625 -56.53515625 483.070625 -56.53515625 482.390625 C-57.43427734 481.99037109 -57.43427734 481.99037109 -58.3515625 481.58203125 C-65.59082259 477.63216662 -69.6834584 468.74211495 -72.78515625 461.453125 C-75.08001554 452.08244955 -74.67318151 442.33469767 -74.64868164 432.75146484 C-74.64839908 431.19335939 -74.64855885 429.63525381 -74.64912415 428.07714844 C-74.64940943 423.87538343 -74.64355633 419.67364734 -74.63655019 415.47188902 C-74.63027173 411.07034167 -74.62970931 406.66879356 -74.62852478 402.26724243 C-74.62542466 393.9448168 -74.61722914 385.6224044 -74.60717529 377.29998457 C-74.59597307 367.8198865 -74.59049337 358.33978776 -74.58547986 348.85968471 C-74.57504536 329.36999065 -74.55747159 309.88030889 -74.53515625 290.390625 C-75.52932053 290.46131132 -76.5234848 290.53199764 -77.54777527 290.60482597 C-86.50795019 291.21833459 -95.41391491 291.53555927 -104.3984375 291.52001953 C-105.6820517 291.52177185 -106.96566589 291.52352417 -108.28817749 291.52532959 C-111.75514583 291.52982087 -115.22208383 291.52814922 -118.68905258 291.5249505 C-122.35170308 291.52238329 -126.01435133 291.5247764 -129.67700195 291.52633667 C-135.82275855 291.52814581 -141.96850306 291.52578524 -148.11425781 291.52099609 C-155.17612204 291.51555592 -162.23795737 291.51731946 -169.2998209 291.5228225 C-175.40989965 291.52738964 -181.5199698 291.52798669 -187.63004971 291.52538383 C-191.25879323 291.52384073 -194.88752326 291.52357234 -198.51626587 291.52692032 C-248.36531725 291.56605626 -248.36531725 291.56605626 -263.65625 277.4296875 C-274.9512343 265.60091377 -277.10711451 253.62940126 -276.87890625 237.98046875 C-276.36849603 225.28614113 -270.31318063 215.7086939 -261.22265625 207.203125 C-253.30264667 200.41645013 -245.0448568 196.15984169 -234.47366333 196.1121521 C-233.78658354 196.1063597 -233.09950374 196.1005673 -232.39160335 196.09459937 C-230.10232914 196.07767064 -227.8132574 196.07472908 -225.52392578 196.07177734 C-223.87773651 196.06247423 -222.23155194 196.05230499 -220.58537292 196.04133606 C-216.12513663 196.01406516 -211.66493187 195.99889527 -207.20463419 195.98590803 C-202.5401031 195.97026478 -197.87563628 195.94347835 -193.21115112 195.9178772 C-184.38217449 195.87111059 -175.55318574 195.83435621 -166.72414863 195.80120432 C-156.67095666 195.76296799 -146.61782928 195.71356177 -136.56469178 195.66322017 C-115.88822764 195.55993181 -95.21172261 195.47066132 -74.53515625 195.390625 C-74.53653894 194.17390405 -74.53653894 194.17390405 -74.53794956 192.93260288 C-74.56005422 173.17635695 -74.57659191 153.42011316 -74.58696842 133.66385746 C-74.59212007 124.10980344 -74.5991412 114.55575769 -74.6105957 105.00170898 C-74.62057712 96.67235971 -74.62701791 88.34301642 -74.62924474 80.01366132 C-74.63054598 75.60521576 -74.63359462 71.19678731 -74.64088631 66.78834724 C-74.64770109 62.63436637 -74.64976214 58.48040958 -74.64826393 54.32642365 C-74.64853781 52.80633602 -74.65051042 51.28624755 -74.65436172 49.76616478 C-74.69678242 32.1508877 -72.5181141 18.56352076 -59.84765625 5.5078125 C-56.30847144 2.26754532 -52.76481143 -0.34222315 -48.53515625 -2.609375 C-47.79652344 -3.021875 -47.05789062 -3.434375 -46.296875 -3.859375 C-32.03185459 -10.41172887 -12.979051 -8.23939755 0 0 Z " fill="#F9F9F9" transform="translate(276.53515625,6.609375)"/>
<path d="M0 0 C-1.39750048 3.15835107 -3.05198234 5.32272825 -5.5 7.75 C-6.41265625 8.67039062 -6.41265625 8.67039062 -7.34375 9.609375 C-9 11 -9 11 -11 11 C-9.60249952 7.84164893 -7.94801766 5.67727175 -5.5 3.25 C-4.8915625 2.63640625 -4.283125 2.0228125 -3.65625 1.390625 C-2 0 -2 0 0 0 Z " fill="#909090" transform="translate(223,8)"/>
<path d="M0 0 C-1.44781793 3.44428265 -3.27694609 5.36130962 -6.125 7.75 C-7.21167969 8.67039063 -7.21167969 8.67039063 -8.3203125 9.609375 C-8.87460938 10.06828125 -9.42890625 10.5271875 -10 11 C-10 8 -10 8 -8.3203125 5.95703125 C-7.23363281 4.89548828 -7.23363281 4.89548828 -6.125 3.8125 C-5.40570312 3.09707031 -4.68640625 2.38164062 -3.9453125 1.64453125 C-2 0 -2 0 0 0 Z " fill="#8D8D8D" transform="translate(19,212)"/>
</svg>
