<?xml version="1.0" encoding="UTF-8"?>
<svg version="1.1" xmlns="http://www.w3.org/2000/svg" width="500" height="500">
<path d="M0 0 C8.36968228 3.95090592 16.37403757 8.43834664 24.38818359 13.05615234 C31.33068577 17.05504331 38.31268051 20.97744128 45.3125 24.875 C54.5982481 30.05349421 63.80018873 35.36016015 72.96875 40.74291992 C81.25285929 45.59409106 89.61716079 50.29223252 98.00268555 54.96533203 C104.89535373 58.81022176 111.74646945 62.71782526 118.56787109 66.6875 C125.50475015 70.72202257 132.46837969 74.70897962 139.4375 78.6875 C140.03068024 79.02618103 140.62386047 79.36486206 141.23501587 79.71380615 C144.27482493 81.44932928 147.31484593 83.18448069 150.35498047 84.91943359 C155.65758947 87.94578344 160.9582766 90.975496 166.25906372 94.0050354 C169.17262609 95.67016895 172.08631985 97.33507256 175 99 C176.16666729 99.66666557 177.33333396 100.33333224 178.5 101 C179.0775 101.33 179.655 101.66 180.25 102 C183.75032043 104.00018311 187.25064087 106.00036621 190.7509613 108.00054932 C191.32870804 108.33069031 191.90645477 108.6608313 192.50170898 109.00097656 C194.8293457 110.33105469 197.15698242 111.66113281 199.48461914 112.99121094 C200.05989853 113.31994202 200.63517792 113.6486731 201.22789001 113.98736572 C202.9750061 114.98571777 204.72212219 115.98406982 206.46923828 116.98242188 C207.33950653 117.47971802 207.33950653 117.47971802 208.22735596 117.98706055 C210.62812297 119.35892741 213.02888997 120.73079427 215.42965698 122.10266113 C216.02908112 122.44518921 216.62850525 122.78771729 217.24609375 123.140625 C219.04736328 124.16992187 220.84863281 125.19921875 222.64990234 126.22851562 C223.23980957 126.56560547 223.8297168 126.90269531 224.4375 127.25 C241.67317708 137.09895833 258.90885417 146.94791667 276.14453125 156.796875 C276.73902069 157.13658325 277.33351013 157.4762915 277.9460144 157.82629395 C280.36401367 159.20800781 282.78201294 160.58972168 285.20001221 161.97143555 C286.09100616 162.48057495 286.09100616 162.48057495 287 163 C290.51367188 165.0078125 290.51367188 165.0078125 294.02734375 167.015625 C294.60311661 167.34463806 295.17888947 167.67365112 295.77210999 168.01263428 C297.51473999 169.00842285 299.25737 170.00421143 301 171 C301.57686554 171.32963745 302.15373108 171.6592749 302.74807739 171.99890137 C304.49871826 172.99926758 306.24935913 173.99963379 308 175 C308.57753525 175.33002014 309.1550705 175.66004028 309.75010681 176.00006104 C346.5 197 346.5 197 348.24961853 197.99980164 C349.41753423 198.66716895 350.5854725 199.33449676 351.75343323 200.00178528 C354.65117572 201.65741108 357.54844705 203.31384805 360.44506836 204.97143555 C365.9205802 208.10377941 371.39951053 211.22948871 376.89126587 214.33328247 C379.49051364 215.80281465 382.0877401 217.27589858 384.68481445 218.74926758 C385.92566867 219.45189664 387.16751536 220.15277618 388.41040039 220.85180664 C390.13155694 221.81997183 391.84906765 222.7946098 393.56640625 223.76953125 C395.03509155 224.59868042 395.03509155 224.59868042 396.53344727 225.44458008 C398.69629501 226.80848218 400.30537035 228.10428237 402 230 C398.51378193 231.02843999 395.15198175 231.26019436 391.52983093 231.46865845 C390.88206737 231.50697041 390.2343038 231.54528237 389.56691104 231.5847553 C387.39856358 231.71203158 385.2299427 231.8338011 383.0612793 231.95556641 C381.50554634 232.04569455 379.94983182 232.13614131 378.39413452 232.22688293 C374.16903865 232.47222946 369.94367324 232.71259188 365.71821952 232.95168734 C362.18943053 233.15171671 358.66076764 233.35392484 355.1320985 233.55605543 C346.80515032 234.0329085 338.47796609 234.50547534 330.15063477 234.97558594 C321.56498874 235.46037135 312.9798276 235.95315617 304.39485806 236.44976485 C297.02091226 236.8759901 289.64667203 237.2968305 282.27217799 237.71346223 C277.86926095 237.9622903 273.46649048 238.21323935 269.06400108 238.46953201 C264.9218032 238.71046933 260.77927832 238.94468145 256.63640976 239.17378807 C255.11856683 239.25885449 253.60085408 239.34628274 252.08329582 239.43628502 C250.00620758 239.55909381 247.92881156 239.67324078 245.85112 239.78530884 C244.69024714 239.85130091 243.52937429 239.91729298 242.33332348 239.98528481 C235.74125379 240.01438597 230.93183326 238.77276359 225.1171875 235.7109375 C224.47346191 235.37580643 223.82973633 235.04067535 223.16650391 234.69538879 C221.06417255 233.59814664 218.96973858 232.48665824 216.875 231.375 C215.40044526 230.60223464 213.92533928 229.83052028 212.44970703 229.05981445 C209.43010315 227.48129855 206.4132523 225.8977011 203.3984375 224.31005859 C197.50891043 221.21184144 191.59305115 218.16508116 185.67749023 215.11697388 C175.6355964 209.93876108 165.61338992 204.72266632 155.60131836 199.48706055 C149.37869397 196.2345847 143.14361822 193.00708048 136.90209961 189.79101562 C133.47331681 188.01851541 130.05264005 186.23111189 126.6328125 184.44140625 C122.34331079 182.19902448 118.02939123 180.02533219 113.6796875 177.90234375 C111.72363409 176.91470441 109.7678885 175.92645512 107.8125 174.9375 C106.49560181 174.32358398 106.49560181 174.32358398 105.15209961 173.69726562 C97.9681753 169.98744822 94.78374371 164.75753461 90.97286987 157.76766968 C89.38370243 154.88020941 87.67857119 152.06192022 85.9921875 149.23046875 C84.61573367 146.88518135 83.24590825 144.53603224 81.875 142.1875 C81.13489033 140.92229032 80.39465365 139.65715494 79.65429688 138.39208984 C76.13013531 132.36809248 72.61404478 126.33940844 69.1015625 120.30859375 C68.49739502 119.27130127 67.89322754 118.23400879 67.27075195 117.1652832 C66.09980273 115.15482813 64.92906353 113.14425073 63.75854492 111.13354492 C60.26214614 105.13615433 56.71370432 99.17377907 53.11914062 93.23486328 C50.09156949 88.20824635 47.22643247 83.09684183 44.36938477 77.97192383 C41.86490986 73.49511391 39.28056786 69.07621244 36.625 64.6875 C33.29300818 59.18016551 30.03036993 53.6373083 26.8125 48.0625 C26.36326172 47.28511475 25.91402344 46.50772949 25.45117188 45.70678711 C23.37471111 42.1129404 21.29915995 38.51857135 19.22509766 34.92333984 C17.36191146 31.69684667 15.49382133 28.47323186 13.625 25.25 C13.04210205 24.2381665 12.4592041 23.22633301 11.85864258 22.18383789 C9.43801192 18.01530335 7.02680905 13.92779502 4.16796875 10.04296875 C1.71885682 6.60538642 0.9139367 4.07117256 0 0 Z " fill="#FBFBFB" transform="translate(48,0)"/>
<path d="M0 0 C-3.04127711 3.13570895 -5.92200297 5.32089835 -9.71484375 7.51171875 C-10.55389503 8.00004936 -10.55389503 8.00004936 -11.40989685 8.49824524 C-13.24917651 9.56705737 -15.09331636 10.62717593 -16.9375 11.6875 C-18.23101714 12.43748633 -19.52414252 13.1881487 -20.81689453 13.93945312 C-23.51327781 15.50575652 -26.21133761 17.06911194 -28.91064453 18.63037109 C-34.79142566 22.03450016 -40.65330181 25.47085698 -46.5144043 28.90872192 C-48.37192078 29.99819397 -50.22988548 31.08689869 -52.08789062 32.17553711 C-59.18554809 36.33615216 -66.26005461 40.53158747 -73.3046875 44.78125 C-80.88341287 49.34460115 -88.51805535 53.81518287 -96.13720703 58.31054688 C-101.67805143 61.58042946 -107.21636943 64.85458916 -112.75488281 68.12841797 C-117.29993793 70.81471782 -121.8460209 73.49924169 -126.39453125 76.1796875 C-137.18895428 82.5440294 -147.95064416 88.9602159 -158.68945312 95.41796875 C-166.26307027 99.9686801 -173.86650698 104.46628398 -181.48266602 108.9453125 C-186.60873399 111.96911922 -191.71034188 115.03017301 -196.7890625 118.1328125 C-197.37227768 118.48906708 -197.95549286 118.84532166 -198.55638123 119.21237183 C-199.74905576 119.94106113 -200.94171822 120.66977018 -202.1343689 121.39849854 C-212.08182909 127.47522915 -222.09982546 133.37609989 -232.28369141 139.05126953 C-240.51025771 143.6620756 -248.55771332 148.54588763 -256.59912109 153.46875 C-264.9961215 158.60649403 -273.45265086 163.61440479 -282 168.5 C-291.12776244 173.71973713 -300.15334071 179.08087015 -309.125 184.5625 C-318.73083399 190.43153146 -328.39345351 196.18742606 -338.13330078 201.83227539 C-345.29589142 205.98914664 -352.40646714 210.2264823 -359.5 214.5 C-363.66487306 217.00299803 -367.83169927 219.50271452 -372 222 C-373.1226123 222.67289063 -374.24522461 223.34578125 -375.40185547 224.0390625 C-378.74052151 226.03713855 -382.08853396 228.01923368 -385.4375 230 C-386.46875 230.61810547 -387.5 231.23621094 -388.5625 231.87304688 C-389.50996094 232.43056641 -390.45742188 232.98808594 -391.43359375 233.5625 C-392.26947021 234.05878906 -393.10534668 234.55507813 -393.96655273 235.06640625 C-394.63759033 235.37449219 -395.30862793 235.68257812 -396 236 C-396.66 235.67 -397.32 235.34 -398 235 C-390.17873005 218.47760024 -382.11183957 202.08841129 -373.921875 185.74609375 C-372.69842697 183.30164005 -371.47559596 180.85687785 -370.25274658 178.41212463 C-367.39083523 172.6913713 -364.52689541 166.97163617 -361.66215825 161.25229746 C-358.42137609 154.781953 -355.18288994 148.31046035 -351.94459677 141.83886993 C-347.98022147 133.91629359 -344.01543495 125.99392348 -340.04901123 118.07237244 C-339.49724874 116.97012927 -338.94548624 115.8678861 -338.37700367 114.73224163 C-337.31864012 112.61937573 -336.25920642 110.50704547 -335.19858074 108.39531422 C-333.04058544 104.09610159 -330.89088365 99.79498642 -328.80397034 95.46075439 C-328.48485058 94.80340081 -328.16573082 94.14604723 -327.83694077 93.46877384 C-327.04086846 91.82379257 -326.2543489 90.1741968 -325.46894836 88.52409363 C-323.10063402 84.45461964 -320.00441603 82.31582945 -316 80 C-314.57119877 79.04879157 -313.14550982 78.09289486 -311.72265625 77.1328125 C-310.17127592 76.12710854 -308.61777923 75.12466389 -307.0625 74.125 C-306.20479004 73.57038086 -305.34708008 73.01576172 -304.46337891 72.44433594 C-296.56773581 67.34609507 -288.64240698 62.29406999 -280.72094727 57.23608398 C-272.94961709 52.26663371 -265.2158837 47.24236505 -257.5 42.1875 C-256.40163818 41.46796143 -255.30327637 40.74842285 -254.17163086 40.00708008 C-252.06249679 38.62516766 -249.95336579 37.24325055 -247.84423828 35.86132812 C-236.92044163 28.71257056 -225.93125792 21.66549632 -214.9375 14.625 C-213.87781006 13.94622803 -212.81812012 13.26745605 -211.72631836 12.56811523 C-210.20470093 11.59467163 -210.20470093 11.59467163 -208.65234375 10.6015625 C-207.75507568 10.02744629 -206.85780762 9.45333008 -205.93334961 8.86181641 C-204.96534424 8.24741699 -203.99733887 7.63301758 -203 7 C-202.11403641 6.35184578 -202.11403641 6.35184578 -201.21017456 5.69059753 C-195.85810079 1.94803904 -191.71813478 1.2480787 -185.265625 1.22265625 C-184.25171692 1.19937759 -183.23780884 1.17609894 -182.19317627 1.15211487 C-179.1645296 1.08994607 -176.13650814 1.05222421 -173.10739136 1.02323151 C-170.04224746 0.98944191 -166.97748635 0.93654109 -163.91259098 0.88536549 C-152.55796865 0.69740334 -141.20292395 0.57659119 -129.84730911 0.46757126 C-126.72712232 0.43727788 -123.60695385 0.40549235 -120.48678589 0.37332153 C-80.32409759 -0.0379959 -40.16436047 -0.12033509 0 0 Z " fill="#D1D1D1" transform="translate(470,261)"/>
<path d="M0 0 C0.33 0.66 0.66 1.32 1 2 C1.66 2 2.32 2 3 2 C4.73037321 4.33298787 6.33556509 6.67010747 7.91796875 9.1015625 C8.65139748 10.21012352 8.65139748 10.21012352 9.39964294 11.34107971 C11.00174161 13.76505852 12.59444078 16.19507305 14.1875 18.625 C15.84541345 21.13705027 17.50584554 23.64742293 19.16644287 26.15769958 C20.26605313 27.82024334 21.36489014 29.48329878 22.46295166 31.14686584 C26.46044222 37.20032306 30.51423504 43.2102544 34.625 49.1875 C41.9690718 59.88768244 49.15020307 70.69556254 56.32666016 81.50854492 C60.52880051 87.83471412 64.75607627 94.13181011 69.13671875 100.33642578 C72.92931966 105.75797661 76.62552492 111.24605661 80.33544922 116.72436523 C81.7598591 118.82705382 83.18651957 120.92820359 84.61328125 123.02929688 C85.52878224 124.38011589 86.4441516 125.73102414 87.359375 127.08203125 C87.78128113 127.70294144 88.20318726 128.32385162 88.63787842 128.96357727 C89.76859152 130.63566201 90.88482178 132.31751462 92 134 C92.52486622 134.7629689 93.04973244 135.52593781 93.59050369 136.31202698 C95.24165164 139.46084058 95.49927501 141.7208593 95.70916748 145.26220703 C95.79046402 146.52397766 95.87176056 147.78574829 95.95552063 149.08575439 C96.03147936 150.47642626 96.10716923 151.86711283 96.18261719 153.2578125 C96.27221497 154.7283208 96.36297864 156.19875846 96.45481873 157.66912842 C96.70035208 161.65598195 96.92909267 165.64363876 97.15447521 169.63167572 C97.39295104 173.80722671 97.64567609 177.98191699 97.89654541 182.15673828 C98.31567641 189.16712854 98.72442462 196.17806304 99.12646484 203.18945312 C99.5912195 211.29324267 100.06983536 219.3961173 100.55646205 227.49862099 C101.07462634 236.1283058 101.58291622 244.75855137 102.0881815 253.38899994 C102.23433641 255.87434383 102.38230447 258.35957433 102.53066254 260.8447876 C102.76336412 264.75142497 102.98942473 268.65839291 103.21037483 272.56571198 C103.29241482 273.99892173 103.37663446 275.43200865 103.46320152 276.86495209 C103.58105221 278.82221393 103.6901266 280.77999831 103.79876709 282.73779297 C103.86216152 283.83284149 103.92555595 284.92789001 103.99087143 286.05612183 C104.00693744 291.23725999 102.75486211 294.84763719 100.296875 299.3671875 C99.73516602 300.40609131 99.17345703 301.44499512 98.59472656 302.51538086 C97.9859668 303.62405518 97.37720703 304.73272949 96.75 305.875 C96.12319336 307.02814697 95.49638672 308.18129395 94.85058594 309.36938477 C90.20314413 317.90267029 85.4273925 326.36234419 80.61621094 334.80419922 C76.869231 341.39856384 73.29980392 348.06661468 69.80761719 354.79858398 C65.98811884 362.11877702 61.90530386 369.28095192 57.81640625 376.453125 C54.42995445 382.41328017 51.15630976 388.41509538 48 394.5 C43.77672756 402.64135254 39.29163144 410.6172591 34.75048828 418.58496094 C31.5252165 424.25800914 28.39001699 429.96268005 25.375 435.75 C22.05815844 442.10398684 18.57743703 448.35143086 15 454.5625 C14.51837402 455.40329102 14.03674805 456.24408203 13.54052734 457.11035156 C13.09402832 457.87959961 12.6475293 458.64884766 12.1875 459.44140625 C11.59001953 460.47309937 11.59001953 460.47309937 10.98046875 461.52563477 C10.65691406 462.01217529 10.33335938 462.49871582 10 463 C9.67 463 9.34 463 9 463 C8.0143098 443.67160821 7.60012187 424.33970689 7.20759046 404.99247503 C7.11201608 400.31019565 7.01339252 395.62798023 6.91520691 390.945755 C6.72386889 381.79708331 6.53540936 372.64835459 6.34812134 363.49959917 C6.19540909 356.04059883 6.04183227 348.58161677 5.8876667 341.12264633 C5.44849322 319.86982601 5.01146234 298.61696325 4.57729047 277.36404015 C4.55395991 276.2220026 4.53062935 275.07996506 4.5065918 273.90332031 C4.48323238 272.75984968 4.45987296 271.61637905 4.43580569 270.4382578 C4.05850426 251.97523643 3.67614154 233.51232391 3.29142123 215.04945578 C2.8942993 195.98865015 2.50101981 176.92776845 2.11159331 157.866804 C1.89374588 147.2076116 1.67442034 136.54845482 1.45100212 125.88937759 C-0.351785 39.78473234 -0.351785 39.78473234 0 0 Z " fill="#FCFCFC" transform="translate(29,37)"/>
<path d="M0 0 C2.66882375 2.66882375 2.36473921 4.16268799 2.58891296 7.90144348 C2.70879578 9.78791344 2.70879578 9.78791344 2.83110046 11.7124939 C2.91061395 13.11406433 2.989938 14.51564553 3.0690918 15.91723633 C3.15889174 17.38728071 3.24949737 18.85727607 3.34085083 20.32722473 C3.58693481 24.32682798 3.82121071 28.32704463 4.05308127 32.32749391 C4.29717902 36.51089659 4.55084822 40.69371992 4.80317688 44.87663269 C5.22565194 51.90509096 5.64061166 58.93396251 6.05102539 65.96313477 C6.52554376 74.08886876 7.01123793 82.21387469 7.50311345 90.33857518 C7.97586084 98.15075626 8.44126075 105.96335775 8.90311623 113.7761898 C9.09981358 117.10196575 9.29897545 120.42758058 9.50009727 123.75309181 C9.73673018 127.67200443 9.96689104 131.59124558 10.19208145 135.51083183 C10.27572064 136.94887951 10.36155184 138.38680165 10.44974327 139.82457733 C10.5698377 141.78856261 10.68115483 143.75307873 10.79203796 145.71760559 C10.85673121 146.81655057 10.92142447 147.91549555 10.98807812 149.04774189 C11.00902061 154.23380657 9.75706465 157.84358734 7.296875 162.3671875 C6.45431152 163.92554321 6.45431152 163.92554321 5.59472656 165.51538086 C4.9859668 166.62405518 4.37720703 167.73272949 3.75 168.875 C2.80979004 170.60472046 2.80979004 170.60472046 1.85058594 172.36938477 C-2.79685587 180.90267029 -7.5726075 189.36234419 -12.38378906 197.80419922 C-16.130769 204.39856384 -19.70019608 211.06661468 -23.19238281 217.79858398 C-27.01188116 225.11877702 -31.09469614 232.28095192 -35.18359375 239.453125 C-38.57004555 245.41328017 -41.84369024 251.41509538 -45 257.5 C-49.22327244 265.64135254 -53.70836856 273.6172591 -58.24951172 281.58496094 C-61.4747835 287.25800914 -64.60998301 292.96268005 -67.625 298.75 C-70.94184156 305.10398684 -74.42256297 311.35143086 -78 317.5625 C-78.48162598 318.40329102 -78.96325195 319.24408203 -79.45947266 320.11035156 C-79.90597168 320.87959961 -80.3524707 321.64884766 -80.8125 322.44140625 C-81.40998047 323.47309937 -81.40998047 323.47309937 -82.01953125 324.52563477 C-82.34308594 325.01217529 -82.66664062 325.49871582 -83 326 C-83.33 326 -83.66 326 -84 326 C-84 322.04 -84 318.08 -84 314 C-83.01 315.485 -83.01 315.485 -82 317 C-78.91227401 306.55673826 -75.94841029 296.11345724 -73.5 285.5 C-71.29092103 275.98255145 -68.68615069 266.62092233 -65.94677734 257.24414062 C-59.96782258 236.75720126 -54.19637336 216.24576835 -48.93359375 195.5625 C-46.98911482 187.92284078 -44.97347421 180.30322593 -42.9375 172.6875 C-42.60113525 171.42719971 -42.26477051 170.16689941 -41.91821289 168.8684082 C-40.42834921 163.29690486 -38.92960451 157.72827048 -37.3984375 152.16796875 C-33.19001547 136.83411838 -29.30167425 121.42355867 -25.4375 106 C-25.16386627 104.91064148 -24.89023254 103.82128296 -24.60830688 102.69891357 C-21.27759011 89.42573817 -18.06150447 76.13244515 -15.02000427 62.78979492 C-13.0410814 54.10942394 -10.91017595 45.47317651 -8.72119141 36.84375 C-7.22377897 30.93926115 -5.7357664 25.03242842 -4.25 19.125 C-3.94392822 17.91730957 -3.63785645 16.70961914 -3.32250977 15.46533203 C-2.89216431 13.75385986 -2.89216431 13.75385986 -2.453125 12.0078125 C-2.19692383 10.99348145 -1.94072266 9.97915039 -1.67675781 8.93408203 C-0.9927601 5.96861142 -0.46871177 3.00635534 0 0 Z " fill="#C1C0CF" transform="translate(122,174)"/>
<path d="M0 0 C2.475 0.99 2.475 0.99 5 2 C5 2.99 5 3.98 5 5 C6.93812554 7.18916829 8.8894279 9.2122657 10.984375 11.2421875 C11.59637756 11.84757355 12.20838013 12.45295959 12.83892822 13.07669067 C14.80234404 15.01665591 16.77559166 16.94622883 18.75 18.875 C20.70842561 20.7982645 22.66467668 22.72366766 24.6182251 24.65188599 C25.83485871 25.85166778 27.05456826 27.04834084 28.277771 28.24142456 C31.43254441 31.34125001 34.2851822 34.49671397 37 38 C38.6429504 39.69005016 40.31258635 41.35434186 42 43 C44.31644614 45.28769219 46.62669753 47.58160939 48.9375 49.875 C49.53240234 50.46152344 50.12730469 51.04804687 50.74023438 51.65234375 C59.0713926 59.93797652 59.0713926 59.93797652 62 64 C62 64.66 62 65.32 62 66 C62.56074219 66.23460938 63.12148437 66.46921875 63.69921875 66.7109375 C70.66799871 70.61534732 76.1228708 78.01271463 81.26171875 84.046875 C83.85706225 86.96299129 86.67059908 89.64447958 89.49609375 92.3359375 C91 94 91 94 91 96 C91.639375 96.268125 92.27875 96.53625 92.9375 96.8125 C95 98 95 98 96 101 C97.485 101.495 97.485 101.495 99 102 C100.55258179 103.57258606 100.55258179 103.57258606 102.20458984 105.57348633 C105.85243924 109.87012232 109.72742095 113.85588329 113.7265625 117.82421875 C114.43726898 118.53351028 115.14797546 119.24280182 115.88021851 119.97358704 C118.12611477 122.21394485 120.37547627 124.45078512 122.625 126.6875 C124.14085837 128.1983336 125.65648534 129.7093994 127.171875 131.22070312 C129.95120954 133.99191632 132.73185116 136.76180255 135.51416016 139.5300293 C136.41258636 140.42508682 136.41258636 140.42508682 137.3291626 141.33822632 C138.82303108 142.82399107 140.32206198 144.30456107 141.82177734 145.78442383 C144 148 144 148 146.3125 150.875 C148.93233312 154.10004773 152.00398731 156.66168008 155.16015625 159.34765625 C157.40011153 161.35933583 159.1210172 163.6512715 161 166 C162.19102152 167.07175212 163.4008276 168.12277129 164.62231445 169.15966797 C168.95280416 172.91000017 173.00877305 176.88079696 177.04296875 180.9453125 C178.14020012 182.04466629 178.14020012 182.04466629 179.25959778 183.16622925 C181.57128366 185.48345622 183.87945358 187.80414855 186.1875 190.125 C187.7465109 191.68903526 189.30575374 193.25283936 190.86523438 194.81640625 C193.72433674 197.68363253 196.58211637 200.55216232 199.43823242 203.42236328 C203.68508197 207.68900956 207.94015821 211.94647823 212.22566223 216.17436218 C214.36447769 218.28629438 216.49786088 220.4036809 218.63110352 222.52124023 C219.75923771 223.63921844 220.88914543 224.75540963 222.02075195 225.86987305 C223.66043757 227.48542825 225.29369069 229.10724576 226.92578125 230.73046875 C227.43506668 231.22943161 227.94435211 231.72839447 228.46907043 232.24247742 C229.68459707 233.45760862 230.84782166 234.72464361 232 236 C232 236.66 232 237.32 232 238 C226.36436698 236.38193897 221.458525 233.74412193 216.3125 231 C214.26233593 229.91810049 212.21150948 228.83745558 210.16015625 227.7578125 C209.02980957 227.16258789 207.89946289 226.56736328 206.73486328 225.95410156 C200.36264693 222.61141868 193.95389253 219.33907148 187.55117798 216.05532837 C177.01094736 210.6489959 166.47474504 205.23822116 156.00805664 199.69042969 C150.80715806 196.93801179 145.58316958 194.2319558 140.34996033 191.54161072 C137.20782135 189.92571875 134.06840389 188.3049883 130.93530273 186.67163086 C130.32041489 186.35113266 129.70552704 186.03063446 129.07200623 185.70042419 C127.83864545 185.05750868 126.6053789 184.41441237 125.37220764 183.77113342 C121.45176213 181.73315721 117.50168376 179.76654396 113.53125 177.828125 C111.58299238 176.84442497 109.63505523 175.86008989 107.6875 174.875 C106.38268677 174.26712646 106.38268677 174.26712646 105.05151367 173.64697266 C97.91948206 169.96252309 94.76181731 164.70224002 90.97488403 157.76867676 C89.38361017 154.88171892 87.67866058 152.06255159 85.9921875 149.23046875 C84.61575552 146.88516853 83.24590824 144.53603223 81.875 142.1875 C81.13489033 140.92229032 80.39465365 139.65715494 79.65429688 138.39208984 C76.13013531 132.36809248 72.61404478 126.33940844 69.1015625 120.30859375 C68.49739502 119.27130127 67.89322754 118.23400879 67.27075195 117.1652832 C66.09980273 115.15482813 64.92906353 113.14425073 63.75854492 111.13354492 C60.26214614 105.13615433 56.71370432 99.17377907 53.11914062 93.23486328 C50.09156949 88.20824635 47.22643247 83.09684183 44.36938477 77.97192383 C41.86490986 73.49511391 39.28056786 69.07621244 36.625 64.6875 C33.29300818 59.18016551 30.03036993 53.6373083 26.8125 48.0625 C26.36326172 47.28511475 25.91402344 46.50772949 25.45117188 45.70678711 C23.37471111 42.1129404 21.29915995 38.51857135 19.22509766 34.92333984 C17.36191146 31.69684667 15.49382133 28.47323186 13.625 25.25 C13.04210205 24.2381665 12.4592041 23.22633301 11.85864258 22.18383789 C9.43801192 18.01530335 7.02680905 13.92779502 4.16796875 10.04296875 C1.71885682 6.60538642 0.9139367 4.07117256 0 0 Z " fill="#C2C1D1" transform="translate(48,0)"/>
<path d="M0 0 C3.79828522 0.53444535 6.38542282 1.76322085 9.77246094 3.56616211 C10.40420227 3.89737564 11.0359436 4.22858917 11.68682861 4.56983948 C13.05297711 5.28766336 14.41623725 6.01100585 15.77685547 6.73925781 C19.4503726 8.70532418 23.14459056 10.63197689 26.83496094 12.56616211 C27.59933472 12.96837982 28.3637085 13.37059753 29.15124512 13.78500366 C36.70519436 17.75269367 44.33276492 21.56653453 51.97558594 25.35946655 C61.98805971 30.32840809 71.99408241 35.29894147 81.83325195 40.60571289 C84.9301244 42.274955 88.0423211 43.89175857 91.20605469 45.42944336 C91.86186523 45.74896973 92.51767578 46.06849609 93.19335938 46.39770508 C94.95954352 47.25185814 96.73102201 48.09504027 98.50292969 48.93725586 C101.16308594 50.44506836 101.16308594 50.44506836 103.16308594 53.44506836 C103.72558594 56.25756836 103.72558594 56.25756836 103.16308594 59.44506836 C99.26688877 63.70432669 94.27081242 66.81617847 89.35058594 69.75756836 C82.14025902 74.17168482 75.04511548 78.74657615 67.97558594 83.38256836 C66.88020508 84.10049561 65.78482422 84.81842285 64.65625 85.55810547 C61.76153887 87.45617447 58.86793981 89.35593352 55.9744873 91.25592041 C52.86369773 93.29809014 49.75166599 95.33836437 46.63964844 97.37866211 C45.70197632 97.99365822 45.70197632 97.99365822 44.74536133 98.62107849 C41.6325059 100.66229393 38.5181105 102.70108427 35.40039062 104.73486328 C30.15894707 108.1559636 24.92870818 111.58710976 19.76464844 115.12475586 C18.98226807 115.65343262 18.1998877 116.18210937 17.39379883 116.72680664 C16.00571196 117.66678575 14.62629848 118.61978368 13.25854492 119.58911133 C10.29685774 121.57741596 8.51687674 122.45016499 4.90917969 122.39819336 C2.04192583 121.40301563 1.02125852 120.77448238 -0.83691406 118.44506836 C-1.32736206 116.41557312 -1.32736206 116.41557312 -1.49267578 114.02587891 C-1.56229523 113.10547318 -1.63191467 112.18506744 -1.7036438 111.23677063 C-1.76566986 110.21625107 -1.82769592 109.19573151 -1.89160156 108.14428711 C-1.96788788 107.05532639 -2.04417419 105.96636566 -2.12277222 104.84440613 C-2.38039832 101.04570413 -2.61199326 97.24580738 -2.83691406 93.44506836 C-2.90036766 92.38929974 -2.90036766 92.38929974 -2.96510315 91.31220245 C-3.58614432 80.97198576 -4.15338362 70.62922966 -4.69677734 60.28466797 C-4.91827744 56.0681601 -5.14622518 51.85202832 -5.37593269 47.63596058 C-5.55535543 44.32862853 -5.73121451 41.02111395 -5.90606308 37.71353722 C-5.98866614 36.15924831 -6.07235684 34.60501673 -6.15726089 33.05085182 C-6.42205448 28.18326038 -6.64434547 23.31608164 -6.83691406 18.44506836 C-6.8692086 17.77773556 -6.90150314 17.11040276 -6.93477631 16.42284775 C-7.02350659 14.4958131 -7.08096137 12.56741637 -7.13720703 10.63916016 C-7.17635223 9.53863815 -7.21549744 8.43811615 -7.25582886 7.304245 C-6.59495861 2.79367436 -4.47441707 0.7019675 0 0 Z " fill="#F9F9F9" transform="translate(152.8369140625,195.554931640625)"/>
<path d="M0 0 C3.12265393 1.38777444 5.25298689 3.00046508 7.66699219 5.40820312 C8.36741638 6.102323 9.06784058 6.79644287 9.78948975 7.51159668 C10.53442688 8.26058228 11.27936401 9.00956787 12.046875 9.78125 C12.81807678 10.55053833 13.58927856 11.31982666 14.3838501 12.11242676 C16.01015129 13.73736827 17.63393476 15.36483299 19.25537109 16.99462891 C21.74746268 19.49745175 24.25006592 21.98940563 26.75390625 24.48046875 C28.33137112 26.05925468 29.90821577 27.63866061 31.484375 29.21875 C32.23740906 29.9677356 32.99044312 30.71672119 33.76629639 31.48840332 C34.45411194 32.18252319 35.14192749 32.87664307 35.85058594 33.59179688 C36.46029236 34.20309448 37.06999878 34.81439209 37.69818115 35.44421387 C39 37 39 37 39 39 C39.66 39 40.32 39 41 39 C44.10018505 41.88999743 46.94234781 44.99924473 49.78663635 48.13919067 C58.22761349 57.44749064 67.15533076 66.26649378 76.0625 75.125 C77.66885605 76.72632554 79.27497729 78.32788665 80.88085938 79.9296875 C84.38217221 83.42128354 87.88567261 86.91066615 91.39125061 90.39797974 C91.92213791 90.92664642 92.45302521 91.45531311 93 92 C93.56436264 92.52278534 94.12872528 93.04557068 94.71018982 93.584198 C96 95 96 95 96 97 C96.66 97 97.32 97 98 97 C99.33203125 98.35546875 99.33203125 98.35546875 100.8125 100.1875 C104.31256431 104.3994418 107.96945941 108.20056753 112.25 111.625 C115 114 115 114 116 117 C114.35 117.33 112.7 117.66 111 118 C111 119.32 111 120.64 111 122 C107.70725883 120.71985322 104.52756337 119.32788685 101.3671875 117.75 C100.48724121 117.31107422 99.60729492 116.87214844 98.70068359 116.41992188 C97.76820801 115.95134766 96.83573242 115.48277344 95.875 115 C94.91029785 114.51595703 93.9455957 114.03191406 92.95166016 113.53320312 C86.40187074 110.2352571 79.87407617 106.89680967 73.375 103.5 C72.58851074 103.09136719 71.80202148 102.68273437 70.99169922 102.26171875 C67.44732634 100.39552022 64.10479354 98.56268673 61 96 C61.94875 96.061875 62.8975 96.12375 63.875 96.1875 C65.421875 96.0946875 65.421875 96.0946875 67 96 C67.99 94.515 67.99 94.515 69 93 C67.83082031 92.46890625 66.66164063 91.9378125 65.45703125 91.390625 C63.9086862 90.67744789 62.36051841 89.96388584 60.8125 89.25 C60.04357422 88.90195313 59.27464844 88.55390625 58.48242188 88.1953125 C51.97791947 85.18035001 47.38824001 82.16694236 43.5625 75.9375 C42.96695313 74.968125 42.37140625 73.99875 41.7578125 73 C39.57349625 69.27210026 37.50216547 65.49343941 35.46484375 61.68359375 C34.04193011 59.07681597 32.54312203 56.53713311 31 54 C28.87674674 50.50744243 26.87561218 46.97364307 24.9375 43.375 C22.89967746 39.60397788 20.76669729 35.94835215 18.46875 32.33203125 C11.83572049 21.80033279 5.74582601 11.03762217 0 0 Z " fill="#AFADC3" transform="translate(107,84)"/>
<path d="M0 0 C0.33 0 0.66 0 1 0 C1.43692344 6.85976831 1.86278894 13.72016547 2.28173828 20.58105469 C2.42482954 22.90444697 2.5702545 25.22769695 2.71826172 27.55078125 C3.4797812 39.52787677 4.1413235 51.48845793 4.21875 63.4921875 C4.22982788 64.4125882 4.24090576 65.33298889 4.25231934 66.28128052 C4.25090942 67.12544525 4.24949951 67.96960999 4.24804688 68.83935547 C4.24897339 69.57427216 4.2498999 70.30918884 4.25085449 71.06637573 C4 73 4 73 2 76 C1.34 76 0.68 76 0 76 C-0.20625 76.763125 -0.4125 77.52625 -0.625 78.3125 C-2.13737042 82.3684025 -4.09544898 85.9273134 -6.203125 89.69921875 C-9.6533458 96.03712435 -12.80247228 102.53190458 -16 109 C-16.66 109 -17.32 109 -18 109 C-18.1124707 109.55993652 -18.22494141 110.11987305 -18.34082031 110.69677734 C-19.09601164 113.3354718 -20.21251116 115.4529396 -21.546875 117.8515625 C-22.0625 118.78613281 -22.578125 119.72070312 -23.109375 120.68359375 C-23.65078125 121.65425781 -24.1921875 122.62492187 -24.75 123.625 C-28.66392221 130.67581575 -32.45735032 137.7543908 -36 145 C-36.66 145 -37.32 145 -38 145 C-37.31524496 141.39137791 -36.46768159 137.86247399 -35.51171875 134.31640625 C-35.21950439 133.23085449 -34.92729004 132.14530273 -34.6262207 131.02685547 C-34.31644287 129.88361816 -34.00666504 128.74038086 -33.6875 127.5625 C-33.37063232 126.3883252 -33.05376465 125.21415039 -32.72729492 124.00439453 C-31.13300779 118.11446864 -29.51395991 112.23482794 -27.8125 106.375 C-26.51104865 101.88110596 -25.31878207 97.3726775 -24.19140625 92.83203125 C-24.02055511 92.14529831 -23.84970398 91.45856537 -23.67367554 90.75102234 C-22.52434524 86.12751103 -21.38227646 81.50220032 -20.23902893 76.87718201 C-11.58068725 41.86482623 -11.58068725 41.86482623 -7.80126953 29.22583008 C-6.51056229 24.90474547 -5.43910015 20.58895152 -4.49121094 16.17993164 C-3.74985319 12.88988029 -2.81817044 9.67571851 -1.875 6.4375 C-1.52179688 5.21933594 -1.16859375 4.00117188 -0.8046875 2.74609375 C-0.53914063 1.83988281 -0.27359375 0.93367187 0 0 Z " fill="#AFADC3" transform="translate(115,252)"/>
<path d="M0 0 C6.70879769 -0.03417132 13.41630804 -0.02652468 20.125 0.02734375 C16.76770552 2.26554007 14.03281431 2.99170819 10.1328125 4.015625 C9.09161003 4.29092796 9.09161003 4.29092796 8.02937317 4.5717926 C5.77105802 5.16693597 3.51063501 5.75357992 1.25 6.33984375 C-0.30141693 6.74665585 -1.85276766 7.15372051 -3.40405273 7.56103516 C-12.68483154 9.9882175 -21.98100248 12.33879216 -31.34130859 14.44262695 C-34.99338568 15.27523098 -38.53482768 16.21075431 -42.078125 17.4296875 C-48.15034825 19.51383968 -54.35583866 21.08568103 -60.5625 22.71484375 C-63.21896806 23.41453865 -65.87511103 24.11546329 -68.53125 24.81640625 C-69.21056076 24.99532913 -69.88987152 25.17425201 -70.58976746 25.3585968 C-75.53670709 26.66455225 -80.47275375 28.00753543 -85.40625 29.36328125 C-87.4607268 29.9242981 -89.51542205 30.48450617 -91.57022095 31.04434204 C-92.89407606 31.40682401 -94.21714676 31.77218357 -95.53939819 32.14047241 C-97.38224269 32.65332257 -99.22817084 33.15505318 -101.07421875 33.65625 C-102.12440186 33.9457251 -103.17458496 34.2352002 -104.2565918 34.53344727 C-106.875 35.02734375 -106.875 35.02734375 -109.875 34.02734375 C-85.2328571 17.85820731 -85.2328571 17.85820731 -77.08105469 13.07568359 C-73.81064869 11.07740711 -73.81064869 11.07740711 -70.83618164 8.51928711 C-59.71317422 -0.5087032 -49.17394513 -0.34448487 -35.3125 -0.09765625 C-33.13419675 -0.09502217 -30.95588349 -0.09692656 -28.77758789 -0.10327148 C-23.44920041 -0.10915871 -18.12288723 -0.06202878 -12.79492188 0.00018311 C-8.52965085 0.03985797 -4.26531442 0.02443865 0 0 Z " fill="#C8C7CE" transform="translate(337.875,278.97265625)"/>
<path d="M0 0 C0.66 0 1.32 0 2 0 C2 0.66 2 1.32 2 2 C2.66 2.33 3.32 2.66 4 3 C4 3.66 4 4.32 4 5 C7.71989911 12.69098112 12.15482372 20.02678737 16.58276367 27.32519531 C19.20880857 31.65780629 21.75356014 36.02904524 24.25 40.4375 C26.26911491 44.00055796 28.29930867 47.54491461 30.5 51 C32.74018696 54.51814597 34.81293056 58.125683 36.875 61.75 C37.21700439 62.3493335 37.55900879 62.94866699 37.91137695 63.56616211 C39.58510605 66.50217667 41.24746805 69.44340152 42.89453125 72.39453125 C43.48621094 73.43996094 44.07789063 74.48539062 44.6875 75.5625 C45.46673828 76.95662109 45.46673828 76.95662109 46.26171875 78.37890625 C50.04681875 84.0863267 54.53849528 87.1595278 60.5 90.1875 C61.15097656 90.52974609 61.80195313 90.87199219 62.47265625 91.22460938 C65.91764198 93.01669791 69.35866925 94.63450097 73 96 C71.5 98.0625 71.5 98.0625 69 100 C62.11365411 99.84002958 56.9997803 97.47715455 51 94.25 C50.14921875 93.83878906 49.2984375 93.42757812 48.421875 93.00390625 C41.16930914 89.12178127 37.8495338 83.88111774 33.96984863 76.76263428 C32.38194073 73.8767191 30.67756961 71.06023102 28.9921875 68.23046875 C27.61573265 65.88518195 26.24590825 63.53603224 24.875 61.1875 C24.13489033 59.92229032 23.39465365 58.65715494 22.65429688 57.39208984 C19.13013531 51.36809248 15.61404478 45.33940844 12.1015625 39.30859375 C11.49675049 38.27025391 10.89193848 37.23191406 10.26879883 36.16210938 C9.10415109 34.16235536 7.93991509 32.16236149 6.77612305 30.16210938 C3.10439275 23.86124552 -0.61111565 17.58909774 -4.42578125 11.37353516 C-5.9198917 8.91861248 -7.08621705 6.74134886 -8 4 C-6.865625 3.525625 -5.73125 3.05125 -4.5625 2.5625 C-1.24259834 1.36377917 -1.24259834 1.36377917 0 0 Z " fill="#BAB9C7" transform="translate(105,81)"/>
<path d="M0 0 C-1.56020867 0.65134925 -3.12328579 1.29582964 -4.6875 1.9375 C-5.55761719 2.29714844 -6.42773438 2.65679687 -7.32421875 3.02734375 C-10 4 -10 4 -12.31860352 4.45410156 C-15.15072514 5.03068573 -17.82481067 5.82913935 -20.578125 6.70703125 C-21.64861084 7.04452393 -22.71909668 7.3820166 -23.82202148 7.72973633 C-25.51887085 8.26570435 -25.51887085 8.26570435 -27.25 8.8125 C-36.15080986 11.59196027 -45.00982497 14.13257065 -54.12109375 16.11328125 C-59.12498741 17.25717235 -64.05610645 18.62252118 -69 20 C-82.40553664 23.72893363 -95.85210868 27.24037399 -109.35824585 30.58450317 C-117.78621082 32.67280829 -126.18449021 34.82532966 -134.53564453 37.20507812 C-143.72548677 39.8051097 -153.01089574 42.04058456 -162.28222656 44.32861328 C-165.85670474 45.21163655 -169.42843812 46.10525321 -173 47 C-174.22203125 47.30292969 -175.4440625 47.60585938 -176.703125 47.91796875 C-180.19965308 48.79038846 -183.68565267 49.70059963 -187.171875 50.61328125 C-189.36458333 51.1796875 -191.55729167 51.74609375 -193.75 52.3125 C-195.32394531 52.73112305 -195.32394531 52.73112305 -196.9296875 53.15820312 C-197.91710937 53.41150391 -198.90453125 53.66480469 -199.921875 53.92578125 C-200.80456055 54.15692627 -201.68724609 54.38807129 -202.59667969 54.6262207 C-205.0923853 55.01436833 -206.62771579 54.79959609 -209 54 C-204.57184914 52.49442871 -200.11462983 51.12062567 -195.625 49.8125 C-194.08070751 49.36205342 -192.5364379 48.91152838 -190.9921875 48.4609375 C-189.76387207 48.10273926 -189.76387207 48.10273926 -188.51074219 47.73730469 C-186.0484323 47.01422263 -183.59035142 46.27817929 -181.1328125 45.5390625 C-165.47129905 40.86153732 -149.68512642 36.67851128 -133.88696289 32.49194336 C-121.71338912 29.26490899 -109.55669548 25.98874718 -97.4309082 22.58618164 C-89.64959228 20.41352816 -81.82769183 18.42952408 -73.98544312 16.49188232 C-70.90106887 15.72774602 -67.81979738 14.95135102 -64.73828125 14.17578125 C-58.77335364 12.67746298 -52.8065211 11.1869691 -46.83811951 9.70256042 C-42.88170423 8.71848961 -38.92609948 7.73131992 -34.97167969 6.73925781 C-30.70941772 5.67048284 -26.44506939 4.610403 -22.17929077 3.55575562 C-20.52283125 3.14475987 -18.8670807 2.73089573 -17.21206665 2.31411743 C-14.89710603 1.73170007 -12.579827 1.15958326 -10.26171875 0.58984375 C-9.56944183 0.41321198 -8.87716492 0.2365802 -8.16390991 0.05459595 C-4.9001234 -0.73644561 -3.25691798 -1.08563933 0 0 Z " fill="#F7F7F7" transform="translate(405,279)"/>
<path d="M0 0 C0.99 0.66 1.98 1.32 3 2 C3.66 2 4.32 2 5 2 C3.68037931 5.42734817 2.18914467 8.67765678 0.5 11.9375 C-1.33945394 15.57886801 -2.78153 19.10089599 -4 23 C-7.24004257 31.48647135 -7.24004257 31.48647135 -8.9296875 34.8515625 C-10.46153165 37.92643214 -11.78239002 41.08940617 -13.125 44.25 C-13.40214844 44.8996875 -13.67929688 45.549375 -13.96484375 46.21875 C-14.64433104 47.81203053 -15.32231628 49.4059515 -16 51 C-18.86724686 50.42655063 -19.8614515 50.1385485 -22 48 C-22.18175781 48.63808594 -22.36351563 49.27617187 -22.55078125 49.93359375 C-22.80214844 50.75988281 -23.05351563 51.58617187 -23.3125 52.4375 C-23.55613281 53.26121094 -23.79976563 54.08492188 -24.05078125 54.93359375 C-24.52064453 55.95646484 -24.52064453 55.95646484 -25 57 C-26.485 57.495 -26.485 57.495 -28 58 C-26.7400809 53.99560346 -25.27016757 50.29499371 -23.38623047 46.54541016 C-22.60564774 44.98447128 -22.60564774 44.98447128 -21.80929565 43.39199829 C-21.25089996 42.28552948 -20.69250427 41.17906067 -20.1171875 40.0390625 C-19.54292023 38.89335785 -18.96865295 37.7476532 -18.37698364 36.56723022 C-16.8582171 33.53729385 -15.33465918 30.50979215 -13.81005859 27.48278809 C-12.25195701 24.38712907 -10.6984434 21.28916971 -9.14453125 18.19140625 C-6.10056033 12.12548426 -3.05202977 6.06187087 0 0 Z " fill="#B4B4B4" transform="translate(113,413)"/>
<path d="M0 0 C0.495 1.485 0.495 1.485 1 3 C0.09870361 3.53367187 -0.80259277 4.06734375 -1.73120117 4.6171875 C-5.1407167 6.63641765 -8.54935778 8.65712014 -11.95776367 10.67822266 C-13.42074924 11.54547371 -14.88395797 12.41234846 -16.34741211 13.27880859 C-18.47571658 14.53899848 -20.6032762 15.80043419 -22.73046875 17.0625 C-23.42800262 17.4759668 -24.1255365 17.88943359 -24.84420776 18.31542969 C-28.20965406 20.31643418 -31.55974618 22.33706384 -34.88134766 24.41015625 C-35.48175369 24.78454834 -36.08215973 25.15894043 -36.70075989 25.54467773 C-38.32065326 26.55916191 -39.93647437 27.5801403 -41.55200195 28.6015625 C-44 30 -44 30 -46 30 C-45.34 26.7 -44.68 23.4 -44 20 C-42.68 19.67 -41.36 19.34 -40 19 C-40 19.66 -40 20.32 -40 21 C-39.01 21 -38.02 21 -37 21 C-36.608125 20.030625 -36.21625 19.06125 -35.8125 18.0625 C-34 15 -34 15 -31.375 14.25 C-30.59125 14.1675 -29.8075 14.085 -29 14 C-28.67 13.34 -28.34 12.68 -28 12 C-26.68 12 -25.36 12 -24 12 C-24 11.34 -24 10.68 -24 10 C-21.3155851 8.70157659 -18.62777896 7.41117141 -15.9375 6.125 C-14.80924805 5.57779297 -14.80924805 5.57779297 -13.65820312 5.01953125 C-9.1591633 2.87713133 -4.83338709 1.21957974 0 0 Z " fill="#BABABA" transform="translate(176,433)"/>
<path d="M0 0 C4.49246834 0.52238004 7.19289174 1.63883471 11 4 C13.40991084 5.32763188 15.8232086 6.64163754 18.25 7.9375 C18.9109668 8.29158936 19.57193359 8.64567871 20.25292969 9.01049805 C24.5073652 11.26826144 28.78550318 13.33338789 33.265625 15.11328125 C35.24606437 16.12580318 36.51264762 17.36115803 38 19 C37.01 19.33 36.02 19.66 35 20 C35 21.32 35 22.64 35 24 C31.55749315 22.66624986 28.24782049 21.18812775 24.9453125 19.5390625 C24.00042969 19.06726563 23.05554688 18.59546875 22.08203125 18.109375 C21.10621094 17.61953125 20.13039062 17.1296875 19.125 16.625 C18.15691406 16.14289063 17.18882812 15.66078125 16.19140625 15.1640625 C13.45214061 13.79256623 10.7242558 12.40103097 8 11 C7.26676514 10.63326172 6.53353027 10.26652344 5.77807617 9.88867188 C3.86328125 8.8828125 3.86328125 8.8828125 1 7 C0.0625 3.25 0.0625 3.25 0 0 Z " fill="#B6B5C3" transform="translate(183,182)"/>
<path d="M0 0 C0 0.66 0 1.32 0 2 C-10.15954355 4.69448764 -20.32104247 7.37017271 -30.52734375 9.8828125 C-34.09024137 10.7637533 -37.64092504 11.68751708 -41.19140625 12.6171875 C-42.27397705 12.89699463 -43.35654785 13.17680176 -44.47192383 13.46508789 C-46.62603976 14.02194619 -48.77830451 14.58602474 -50.9284668 15.15795898 C-51.9162915 15.41134033 -52.90411621 15.66472168 -53.921875 15.92578125 C-54.80456055 16.15692627 -55.68724609 16.38807129 -56.59667969 16.6262207 C-59.0923853 17.01436833 -60.62771579 16.79959609 -63 16 C-58.57182941 14.494422 -54.11450839 13.12108165 -49.625 11.8125 C-48.90747559 11.60254395 -48.18995117 11.39258789 -47.45068359 11.17626953 C-45.85398805 10.70929559 -44.25713719 10.24285248 -42.66015625 9.77685547 C-39.75198191 8.92757034 -36.84472965 8.07516935 -33.9375 7.22265625 C-31.83336424 6.60666524 -29.72919778 5.99077913 -27.625 5.375 C-26.63967285 5.0860083 -25.6543457 4.7970166 -24.63916016 4.49926758 C-22.71551955 3.93733233 -20.79056616 3.37986946 -18.86425781 2.82714844 C-16.90619919 2.26169475 -14.95252919 1.68087807 -13.00292969 1.08691406 C-12.04032227 0.80299805 -11.07771484 0.51908203 -10.0859375 0.2265625 C-9.22790527 -0.03302246 -8.36987305 -0.29260742 -7.48583984 -0.56005859 C-4.6959539 -1.05380977 -2.72048542 -0.71892891 0 0 Z " fill="#F4F4F4" transform="translate(259,317)"/>
<path d="M0 0 C2.9375 0.375 2.9375 0.375 6 1 C6.33 1.66 6.66 2.32 7 3 C6.09176973 5.43557572 5.13171929 7.76195517 4.0625 10.125 C3.77181641 10.78371094 3.48113281 11.44242187 3.18164062 12.12109375 C2.46139802 13.75049505 1.73158857 15.37566132 1 17 C-1.86724686 16.42655063 -2.8614515 16.1385485 -5 14 C-5.18175781 14.63808594 -5.36351563 15.27617187 -5.55078125 15.93359375 C-5.80214844 16.75988281 -6.05351563 17.58617187 -6.3125 18.4375 C-6.55613281 19.26121094 -6.79976563 20.08492188 -7.05078125 20.93359375 C-7.36402344 21.61550781 -7.67726563 22.29742187 -8 23 C-8.99 23.33 -9.98 23.66 -11 24 C-9.39323547 18.54406329 -6.94969106 13.6697853 -4.375 8.625 C-3.95476562 7.79355469 -3.53453125 6.96210938 -3.1015625 6.10546875 C-2.07133925 4.06843641 -1.03741179 2.03337811 0 0 Z " fill="#ABABAB" transform="translate(96,447)"/>
<path d="M0 0 C4.03082 1.612328 6.75944137 4.46234596 9.75 7.5 C10.25660156 7.99886719 10.76320313 8.49773437 11.28515625 9.01171875 C15 12.74658861 15 12.74658861 15 15 C10.37324343 13.6077541 6.35313769 11.70479016 2.125 9.375 C0.97257812 8.74335938 -0.17984375 8.11171875 -1.3671875 7.4609375 C-2.23601562 6.97882813 -3.10484375 6.49671875 -4 6 C-3.525625 5.566875 -3.05125 5.13375 -2.5625 4.6875 C-0.76313043 2.97690387 -0.76313043 2.97690387 0 0 Z " fill="#B4B3BE" transform="translate(265,223)"/>
<path d="M0 0 C2.475 0.99 2.475 0.99 5 2 C5 2.99 5 3.98 5 5 C6.78577046 7.00319381 8.56304305 8.84334566 10.5 10.6875 C11.02464844 11.19861328 11.54929687 11.70972656 12.08984375 12.23632812 C13.38660904 13.49772708 14.69246117 14.74977212 16 16 C15.34 16.33 14.68 16.66 14 17 C14 19.31 14 21.62 14 24 C10.9700186 21.3203602 9.09299116 18.12428662 7 14.6875 C6.319375 13.57761719 5.63875 12.46773437 4.9375 11.32421875 C0 2.85282258 0 2.85282258 0 0 Z " fill="#B5B3BD" transform="translate(48,0)"/>
<path d="M0 0 C0.99 0.66 1.98 1.32 3 2 C2.55944446 7.72722205 0.39087448 12.42501063 -3 17 C-6.3125 19.0625 -6.3125 19.0625 -9 20 C-7.55676531 15.26210835 -5.62773267 11.01141849 -3.375 6.625 C-2.88773437 5.66400391 -2.88773437 5.66400391 -2.390625 4.68359375 C-1.59742593 3.12052499 -0.79922969 1.55999378 0 0 Z " fill="#B6B6B6" transform="translate(123,393)"/>
<path d="M0 0 C3.78520613 0.54074373 5.59177555 2.07572746 8 5 C8 5.99 8 6.98 8 8 C7.01 8.66 6.02 9.32 5 10 C5.33 11.65 5.66 13.3 6 15 C5.01 15.495 5.01 15.495 4 16 C1.28517516 11.62125025 -0.64197805 8.25098856 -1 3 C-0.67 2.01 -0.34 1.02 0 0 Z " fill="#BDBCC9" transform="translate(62,17)"/>
<path d="M0 0 C0.66 0.66 1.32 1.32 2 2 C0.49523736 5.7619066 -0.5111863 7.67759096 -3.9375 9.9375 C-6.97278914 10.9905595 -8.10191822 11.22611152 -11 10 C-10.01 9.1028125 -10.01 9.1028125 -9 8.1875 C-6.6626154 6.12498166 -6.6626154 6.12498166 -7 3 C-6.21625 2.87625 -5.4325 2.7525 -4.625 2.625 C-1.85942178 2.20882007 -1.85942178 2.20882007 0 0 Z " fill="#DCDCDC" transform="translate(376,311)"/>
<path d="M0 0 C0.99 0.33 1.98 0.66 3 1 C0.36 5.62 -2.28 10.24 -5 15 C-5.33 15 -5.66 15 -6 15 C-6 11.04 -6 7.08 -6 3 C-5.01 4.485 -5.01 4.485 -4 6 C-3.525625 5.195625 -3.05125 4.39125 -2.5625 3.5625 C-1 1 -1 1 0 0 Z " fill="#C8C7CC" transform="translate(44,485)"/>
<path d="M0 0 C0.99 0.33 1.98 0.66 3 1 C3 1.66 3 2.32 3 3 C-0.91275927 4.03622938 -4.83070776 5.05128673 -8.75 6.0625 C-9.86117187 6.35705078 -10.97234375 6.65160156 -12.1171875 6.95507812 C-13.72207031 7.3659668 -13.72207031 7.3659668 -15.359375 7.78515625 C-16.34389648 8.04176025 -17.32841797 8.29836426 -18.34277344 8.56274414 C-20.98333592 8.99725787 -22.50203857 8.87325 -25 8 C-19.3601038 6.06914382 -13.65201804 4.41808167 -7.92578125 2.76757812 C-3.87308615 1.62381269 -3.87308615 1.62381269 0 0 Z " fill="#EAEAEA" transform="translate(221,325)"/>
<path d="M0 0 C4.87362847 0.45336079 7.39042389 1.7089159 11 5 C10.34 5 9.68 5 9 5 C8.67 5.66 8.34 6.32 8 7 C5.69 7 3.38 7 1 7 C0.67 4.69 0.34 2.38 0 0 Z " fill="#C2C0D0" transform="translate(183,182)"/>
<path d="M0 0 C0.99 0.66 1.98 1.32 3 2 C2.9375 4.75 2.9375 4.75 2 8 C-0.22511214 9.76511299 -2.40437603 10.77297776 -5 12 C-3.68938409 7.76570244 -2.05643741 3.92592596 0 0 Z " fill="#ADADAD" transform="translate(123,393)"/>
<path d="M0 0 C-0.50298788 4.40114397 -2.08772731 6.71195019 -5 10 C-5.33 7.36 -5.66 4.72 -6 2 C-3 0 -3 0 0 0 Z " fill="#B4B3BE" transform="translate(113,363)"/>
<path d="M0 0 C-0.33 1.32 -0.66 2.64 -1 4 C-1.66 4 -2.32 4 -3 4 C-3.33 4.66 -3.66 5.32 -4 6 C-4 5.34 -4 4.68 -4 4 C-4.66 3.67 -5.32 3.34 -6 3 C-3.375 0 -3.375 0 0 0 Z M-10 3 C-8.68 3.33 -7.36 3.66 -6 4 C-6 4.66 -6 5.32 -6 6 C-6.99 6.33 -7.98 6.66 -9 7 C-9.33 5.68 -9.66 4.36 -10 3 Z " fill="#E1E1E1" transform="translate(280,264)"/>
<path d="M0 0 C2 3 2 3 3 6 C1.35 6.66 -0.3 7.32 -2 8 C-2 8.66 -2 9.32 -2 10 C-2.66 10 -3.32 10 -4 10 C-2.8905928 6.51329166 -1.73662334 3.22515763 0 0 Z " fill="#8E8E8E" transform="translate(84,471)"/>
<path d="M0 0 C0.66 0.66 1.32 1.32 2 2 C1.77870194 4.87687481 1.36521506 6.53951144 -0.4375 8.8125 C-2 10 -2 10 -4 10 C-2.8905928 6.51329166 -1.73662334 3.22515763 0 0 Z " fill="#AFAFAF" transform="translate(128,383)"/>
<path d="M0 0 C1.32 0 2.64 0 4 0 C5.40182371 2.61673759 6.60495559 5.0371669 7 8 C6.34 8.66 5.68 9.32 5 10 C3.35 6.7 1.7 3.4 0 0 Z " fill="#A4A4AE" transform="translate(86,66)"/>
<path d="M0 0 C0.99 1.32 1.98 2.64 3 4 C2.34 5.32 1.68 6.64 1 8 C-0.32 8 -1.64 8 -3 8 C-1.125 2.25 -1.125 2.25 0 0 Z " fill="#B0B0B0" transform="translate(132,375)"/>
<path d="M0 0 C-2.88628401 1.57554035 -5.53342384 2.46276373 -8.75 3.125 C-9.54921875 3.29257812 -10.3484375 3.46015625 -11.171875 3.6328125 C-11.77515625 3.75398438 -12.3784375 3.87515625 -13 4 C-8.59744813 -0.6121972 -6.31925422 -1.19231212 0 0 Z " fill="#B6B6B6" transform="translate(252,283)"/>
<path d="M0 0 C0.33 0 0.66 0 1 0 C0.67 2.31 0.34 4.62 0 7 C-0.99 7 -1.98 7 -3 7 C-3.66 5.68 -4.32 4.36 -5 3 C-3.35 2.67 -1.7 2.34 0 2 C0 1.34 0 0.68 0 0 Z " fill="#ADADB9" transform="translate(54,467)"/>
<path d="M0 0 C0.33 0.99 0.66 1.98 1 3 C-2.96 4.98 -2.96 4.98 -7 7 C-6.3125 4.625 -6.3125 4.625 -5 2 C-2.375 0.6875 -2.375 0.6875 0 0 Z " fill="#B3B3B3" transform="translate(176,433)"/>
<path d="M0 0 C1.32 0.66 2.64 1.32 4 2 C3.67 3.32 3.34 4.64 3 6 C1.68 6 0.36 6 -1 6 C-0.67 4.02 -0.34 2.04 0 0 Z " fill="#C7C7C7" transform="translate(333,336)"/>
<path d="M0 0 C1.32 0.66 2.64 1.32 4 2 C-2.75 6 -2.75 6 -5 6 C-5 5.34 -5 4.68 -5 4 C-3.35 3.34 -1.7 2.68 0 2 C0 1.34 0 0.68 0 0 Z " fill="#A3A3A3" transform="translate(190,424)"/>
<path d="M0 0 C0.66 0.33 1.32 0.66 2 1 C2 1.99 2 2.98 2 4 C0.35 4.33 -1.3 4.66 -3 5 C-3 4.01 -3 3.02 -3 2 C-2.01 1.34 -1.02 0.68 0 0 Z " fill="#E2E2E2" transform="translate(369,317)"/>
<path d="M0 0 C0.33 0 0.66 0 1 0 C1 2.31 1 4.62 1 7 C-0.32 7.33 -1.64 7.66 -3 8 C-1.125 2.25 -1.125 2.25 0 0 Z " fill="#AAAAAA" transform="translate(136,367)"/>
<path d="M0 0 C0.99 0.33 1.98 0.66 3 1 C2.01 2.98 1.02 4.96 0 7 C-0.66 6.01 -1.32 5.02 -2 4 C-1.34 2.68 -0.68 1.36 0 0 Z " fill="#A4A3AB" transform="translate(44,485)"/>
<path d="M0 0 C0.99 0.33 1.98 0.66 3 1 C2.67 2.32 2.34 3.64 2 5 C1.34 5 0.68 5 0 5 C-0.33 5.66 -0.66 6.32 -1 7 C-0.67 4.69 -0.34 2.38 0 0 Z " fill="#C7C7C7" transform="translate(129,454)"/>
<path d="M0 0 C2.00720923 0.28674418 4.0085944 0.61866701 6 1 C2.25 4 2.25 4 0 4 C-0.33 3.01 -0.66 2.02 -1 1 C-0.67 0.67 -0.34 0.34 0 0 Z " fill="#A7A7A7" transform="translate(234,397)"/>
<path d="M0 0 C0 0.66 0 1.32 0 2 C-2.3125 2.6875 -2.3125 2.6875 -5 3 C-6.8125 1.5625 -6.8125 1.5625 -8 0 C-4.71023192 -1.09658936 -3.28696233 -0.79953138 0 0 Z " fill="#F1F1F0" transform="translate(259,317)"/>
<path d="M0 0 C0.556875 0.226875 1.11375 0.45375 1.6875 0.6875 C1.048125 0.790625 0.40875 0.89375 -0.25 1 C-1.2709375 1.3403125 -1.2709375 1.3403125 -2.3125 1.6875 C-2.6425 2.6775 -2.9725 3.6675 -3.3125 4.6875 C-4.6325 4.0275 -5.9525 3.3675 -7.3125 2.6875 C-2.88173077 -0.38942308 -2.88173077 -0.38942308 0 0 Z " fill="#BDBDBD" transform="translate(277.3125,263.3125)"/>
<path d="M0 0 C2.475 0.99 2.475 0.99 5 2 C4.67 3.98 4.34 5.96 4 8 C3.34 7.67 2.68 7.34 2 7 C1.26924352 4.6859378 0.59861742 2.35171131 0 0 Z " fill="#878689" transform="translate(48,0)"/>
</svg>
