<?xml version="1.0" encoding="UTF-8"?>
<svg version="1.1" xmlns="http://www.w3.org/2000/svg" width="500" height="500">
<path d="M0 0 C7.92308444 6.63327999 11.73110141 16.41331506 15.875 25.625 C20.52113256 35.86149927 20.52113256 35.86149927 25.5 45.9375 C28.92979741 52.6461502 31.91127866 59.53907712 34.9375 66.4375 C38.74724774 75.11916426 42.73216752 83.55333868 47.32421875 91.84375 C49.47678097 95.89799305 51.20199515 100.06470142 52.90234375 104.32421875 C54.40759552 107.99360474 56.17301927 111.48137045 58 115 C58.94359375 114.90460938 59.8871875 114.80921875 60.859375 114.7109375 C72.64841403 113.69300843 84.1460344 113.43552455 94 121 C102.39750028 128.85239938 105.84209907 136.32033479 106.25 147.8125 C106.09198334 158.35221125 101.41192985 165.38286411 94.3125 172.8125 C92 175 92 175 90.125 176.5 C88.75036912 177.97608707 88.75036912 177.97608707 89.23828125 180.13671875 C90.18272344 183.68685271 91.56820768 186.9680926 93.0625 190.3125 C93.37558105 191.02051758 93.68866211 191.72853516 94.01123047 192.45800781 C96.39036703 197.77774301 98.9602332 202.98186323 101.60473633 208.17333984 C105.28165148 215.44804122 108.6737189 222.85238165 112.08755493 230.25323486 C116.08465602 238.91548106 120.15867276 247.53652901 124.3125 256.125 C141.65811089 292.03758403 141.65811089 292.03758403 138.43359375 305.3359375 C137.10825376 308.51397789 135.33118099 311.46610762 133 314 C132.34 314 131.68 314 131 314 C131 314.66 131 315.32 131 316 C124.60056229 319.91802308 118.9501738 322.79973435 111.19140625 321.5546875 C106.25981654 320.30640632 101.54318343 318.27159172 97 316 C97 315.34 97 314.68 97 314 C96.41476562 313.73316406 95.82953125 313.46632813 95.2265625 313.19140625 C92.96379627 311.98062783 91.28116429 310.6463301 89.375 308.9375 C87.5818742 307.33621517 86.15343684 306.07671842 84 305 C84 304.34 84 303.68 84 303 C83.26523437 302.72671875 82.53046875 302.4534375 81.7734375 302.171875 C79.15523664 301.06559295 76.99908252 299.79940122 74.625 298.25 C55.57248516 286.6884591 34.71857484 284.8125523 12.92358398 284.81469727 C10.46645375 284.81252559 8.00978479 284.79434973 5.55273438 284.77539062 C-8.679222 284.72414524 -22.81832763 285.73903031 -36.75 288.8125 C-37.91269409 289.0614502 -37.91269409 289.0614502 -39.09887695 289.31542969 C-46.30461344 290.93103244 -53.14266599 293.27049022 -60 296 C-59.84789062 296.50273437 -59.69578125 297.00546875 -59.5390625 297.5234375 C-58.02618697 304.47389464 -57.23210555 312.50977538 -60.515625 318.9921875 C-66.30938574 325.88032527 -74.09506824 329.97444443 -82 334 C-81.43400244 338.30603623 -80.39423781 341.78134118 -78.55859375 345.7109375 C-77.81234741 347.3194458 -77.81234741 347.3194458 -77.05102539 348.96044922 C-76.51856201 350.08725098 -75.98609863 351.21405273 -75.4375 352.375 C-74.89536865 353.53660645 -74.3532373 354.69821289 -73.79467773 355.89501953 C-70.50482479 362.91187629 -67.11097662 369.86692464 -63.59643555 376.7734375 C-60.75210125 382.39723928 -58.31926561 388.14385434 -56 394 C-55.6184375 394.94230469 -55.236875 395.88460938 -54.84375 396.85546875 C-52.10536057 403.63298258 -50.77109585 408.88122284 -50.6875 416.1875 C-50.65849609 417.01314453 -50.62949219 417.83878906 -50.59960938 418.68945312 C-50.52204585 426.26084608 -52.6573033 431.32263234 -57.625 437 C-60 439 -60 439 -62 439 C-62 439.66 -62 440.32 -62 441 C-74.99523666 445.56259093 -83.23542475 446.43586474 -96 441 C-96 440.34 -96 439.68 -96 439 C-96.556875 438.79375 -97.11375 438.5875 -97.6875 438.375 C-103.4971232 434.92062945 -106.76373752 428.36551997 -110.25390625 422.78125 C-111.75668114 420.3875683 -113.2963543 418.03141717 -114.875 415.6875 C-120.54459891 407.22786162 -125.98631439 398.6195023 -131.40576172 389.99829102 C-137.82609878 379.78858383 -144.32259446 369.62365477 -151.28125 359.76953125 C-153 357 -153 357 -153 354 C-153.66 354 -154.32 354 -155 354 C-156.5078125 351.8828125 -156.5078125 351.8828125 -158.125 349.125 C-158.66382813 348.22007812 -159.20265625 347.31515625 -159.7578125 346.3828125 C-161 344 -161 344 -161 342 C-165.5338426 341.8289116 -169.50134217 342.03679753 -173.9375 343 C-193.72359244 346.76618036 -212.98486382 342.51470926 -230 332 C-246.47354802 320.77083993 -257.88864401 303.32966457 -261.61328125 283.78125 C-264.96616298 263.89204678 -260.72947755 245.09120318 -250 228 C-249.34 228 -248.68 228 -248 228 C-247.34 226.35 -246.68 224.7 -246 223 C-245.34 223 -244.68 223 -244 223 C-243.65001953 222.14728516 -243.65001953 222.14728516 -243.29296875 221.27734375 C-241.68640008 218.44764727 -239.74913368 216.71554385 -237.3125 214.5625 C-236.48363281 213.82128906 -235.65476562 213.08007812 -234.80078125 212.31640625 C-229.43431464 207.8780315 -224.01830186 204.27811876 -217.75 201.25 C-217.06671631 200.91419922 -216.38343262 200.57839844 -215.67944336 200.23242188 C-205.70138899 195.35071581 -195.64226734 190.63454833 -185.578125 185.93359375 C-175.97135644 181.44234472 -166.44753508 176.81740612 -157 172 C-156.11473633 171.55108398 -155.22947266 171.10216797 -154.31738281 170.63964844 C-141.24794082 163.99605246 -128.38918072 157.17612483 -116.30908203 148.83203125 C-112.19394189 146 -112.19394189 146 -110 146 C-110 145.34 -110 144.68 -110 144 C-108.27852222 142.62340232 -106.49622345 141.32227237 -104.6875 140.0625 C-100.79127279 137.37763585 -100.79127279 137.37763585 -97.26953125 134.24609375 C-96 133 -96 133 -94 133 C-93.67 132.01 -93.34 131.02 -93 130 C-91.328125 128.38671875 -91.328125 128.38671875 -89.25 126.6875 C-86.60274661 124.4577346 -84.27343584 122.27699079 -82.125 119.5625 C-81.42375 118.716875 -80.7225 117.87125 -80 117 C-79.34 117 -78.68 117 -78 117 C-77.75378906 116.44570312 -77.50757813 115.89140625 -77.25390625 115.3203125 C-75.75926837 112.554534 -73.9336261 110.30223137 -71.9375 107.875 C-69.19551253 104.61448977 -69.19551253 104.61448977 -67 101 C-66.34 101 -65.68 101 -65 101 C-64.73316406 100.27039063 -64.46632812 99.54078125 -64.19140625 98.7890625 C-63.01557354 96.03645741 -61.64905123 93.8224762 -59.9375 91.375 C-58.16012171 88.82843844 -56.98934061 86.96802184 -56 84 C-55.34 84 -54.68 84 -54 84 C-53.90332031 83.49210937 -53.80664062 82.98421875 -53.70703125 82.4609375 C-52.9245079 79.73723743 -51.80582752 77.24244414 -50.62548828 74.67041016 C-42.91017468 57.84612662 -40.58583244 42.72050656 -41.390625 24.27734375 C-41.55703051 15.80106317 -39.79026847 9.31601221 -34.11669922 2.85546875 C-24.60396734 -6.59804992 -11.01003021 -7.30710525 0 0 Z M-18.1875 14.6875 C-20.27982864 16.04211954 -20.27982864 16.04211954 -22 19 C-22.32079287 21.93784807 -22.32079287 21.93784807 -22.30859375 25.29296875 C-22.33123291 26.5550415 -22.35387207 27.81711426 -22.37719727 29.11743164 C-22.38631134 29.7822757 -22.39542542 30.44711975 -22.40481567 31.1321106 C-22.79646365 55.7613194 -28.16795069 76.44450241 -40.3359375 97.96875 C-41.78482529 100.60803855 -42.95839179 103.18029292 -44 106 C-44.66 106 -45.32 106 -46 106 C-47.68075662 108.07808784 -47.68075662 108.07808784 -49.375 110.6875 C-51.32178784 113.56094259 -53.2467066 116.30363889 -55.4375 119 C-57.20521468 120.83967603 -57.20521468 120.83967603 -57 123 C-57.66 123 -58.32 123 -59 123 C-59 123.66 -59 124.32 -59 125 C-59.66 125 -60.32 125 -61 125 C-62.56648858 126.58737399 -62.56648858 126.58737399 -64.1875 128.625 C-67.0322326 131.97835423 -69.97759083 134.83189649 -73.3671875 137.62109375 C-74.90064991 138.91609909 -76.33074918 140.33074918 -77.75 141.75 C-80 144 -80 144 -83 146 C-83 146.66 -83 147.32 -83 148 C-83.7425 148.25652344 -84.485 148.51304687 -85.25 148.77734375 C-88.12618958 150.05610417 -89.75003859 151.38724434 -92 153.5625 C-99.48630919 160.43538251 -108.04369988 166.20942087 -117 171 C-117 171.66 -117 172.32 -117 173 C-118.0209375 173.35384766 -118.0209375 173.35384766 -119.0625 173.71484375 C-122.65140881 175.28499135 -125.77776079 177.3631475 -129 179.5625 C-129.648479 179.99997559 -130.29695801 180.43745117 -130.96508789 180.88818359 C-137.3470031 185.20488217 -143.68261333 189.58954792 -150 194 C-148.41553597 199.23962972 -146.18600702 204.02388927 -143.8125 208.9375 C-142.99179923 210.65215796 -142.17149027 212.36700351 -141.3515625 214.08203125 C-140.9484082 214.92330566 -140.54525391 215.76458008 -140.12988281 216.63134766 C-138.62542475 219.78524829 -137.15550798 222.95395813 -135.6875 226.125 C-132.49545273 232.98641001 -129.21899319 239.80597514 -125.9375 246.625 C-122.40505991 253.96617247 -118.89670416 261.31228278 -115.51171875 268.72265625 C-112.07258504 276.17855594 -108.52478578 283.58429338 -105 291 C-98.32936688 288.64443268 -91.67055349 286.26904601 -85.05737305 283.75634766 C-82.35488649 282.73171134 -79.6467134 281.72281459 -76.93652344 280.71875 C-75.15602929 280.05791102 -73.37863797 279.38872788 -71.6015625 278.71875 C-63.44626987 275.80747849 -55.19199608 273.77284502 -46.75 271.875 C-45.68031982 271.63330078 -44.61063965 271.39160156 -43.50854492 271.14257812 C-40.01339626 270.38157342 -36.51217342 269.67822692 -33 269 C-32.30957611 268.86475922 -31.61915222 268.72951843 -30.9078064 268.59017944 C-17.68039868 266.0583559 -4.75948315 265.4776125 8.6875 265.5625 C10.19946457 265.56656357 10.19946457 265.56656357 11.74197388 265.57070923 C26.79214774 265.63202646 41.36613274 266.14264318 56 270 C56.70914551 270.18191895 57.41829102 270.36383789 58.14892578 270.55126953 C72.02206966 274.26249306 84.84303583 281.13017316 96.546875 289.3359375 C98.65220579 290.7640759 100.69596786 291.93411597 103 293 C103 293.66 103 294.32 103 295 C103.66 295 104.32 295 105 295 C105 295.66 105 296.32 105 297 C109.37149656 300.66641647 113.60258708 300.31749488 119 300 C121.87045157 289.80621685 112.52345174 276.66845517 108.16015625 267.66479492 C105.09777076 261.34037044 102.19181844 254.9776482 99.42895508 248.51782227 C97.5390396 244.1354344 95.480331 239.87353331 93.3125 235.625 C90.54499041 230.18971089 88.1209645 224.71738255 86 219 C85.34 219 84.68 219 84 219 C83.9175 218.35160156 83.835 217.70320312 83.75 217.03515625 C82.7222852 212.87612291 80.88164594 209.27269442 79 205.4375 C75.6617691 198.52466156 72.43288095 191.57635927 69.3125 184.5625 C66.58077797 178.44538975 63.76323206 172.40464095 60.72265625 166.43359375 C54.65215616 154.3338895 48.82857638 142.10724016 43.49902344 129.66308594 C40.01555279 121.60205819 35.97212877 113.81645458 31.97802734 106 C29.81451189 101.72841752 27.85932572 97.41529804 26 93 C21.49305597 82.70073801 16.87304567 72.46908617 11.73950195 62.46508789 C10.12692 59.31261706 8.60231507 56.1454429 7.1796875 52.90234375 C4.68573452 47.22647158 1.9994604 41.64482798 -0.69116211 36.06005859 C-1.56704176 34.24056525 -2.43886973 32.41916596 -3.31054688 30.59765625 C-3.86935547 29.43621094 -4.42816406 28.27476563 -5.00390625 27.078125 C-5.50736572 26.03043945 -6.0108252 24.98275391 -6.52954102 23.90332031 C-9.08226334 18.43695522 -9.08226334 18.43695522 -13.4375 14.5625 C-15.95614226 13.78696121 -15.95614226 13.78696121 -18.1875 14.6875 Z M67 135 C68.2644562 138.06517128 69.53769198 141.12662119 70.8125 144.1875 C71.34713867 145.48397461 71.34713867 145.48397461 71.89257812 146.80664062 C73.67296239 151.06976257 75.45462112 155.12170979 78 159 C80.92540283 158.68656398 82.01407811 157.98672635 84.1875 155.9375 C86.84751606 151.62643948 87.45028832 147.57307612 86.5625 142.5 C86.376875 142.005 86.19125 141.51 86 141 C85.34 141 84.68 141 84 141 C83.773125 140.401875 83.54625 139.80375 83.3125 139.1875 C81.20276462 135.67127437 78.31703193 134.42803538 74.5 133.1875 C71.491478 132.96186085 69.73795758 133.81811498 67 135 Z M-178.1875 204 C-178.89148926 204.31179199 -179.59547852 204.62358398 -180.32080078 204.94482422 C-187.41465794 208.1223303 -194.35013843 211.5955148 -201.27099609 215.13037109 C-202.75837361 215.87847032 -204.26255493 216.59299125 -205.76953125 217.30078125 C-222.27843182 225.06183144 -233.58908287 235.72320582 -241.1015625 252.453125 C-245.45833873 264.80363848 -244.13574373 281.31041823 -238.5703125 293.00390625 C-237.11642255 295.72000415 -235.59763504 298.36639848 -234 301 C-233.2265625 302.39412109 -233.2265625 302.39412109 -232.4375 303.81640625 C-231.963125 304.53699219 -231.48875 305.25757813 -231 306 C-230.34 306 -229.68 306 -229 306 C-229 306.66 -229 307.32 -229 308 C-228.34 308 -227.68 308 -227 308 C-227 308.66 -227 309.32 -227 310 C-226.34 310 -225.68 310 -225 310 C-225 310.66 -225 311.32 -225 312 C-214.12609362 321.39320423 -200.77646978 325.62998133 -186.55102539 325.30102539 C-176.16865144 324.42089702 -165.98427654 319.61652232 -156.375 315.8125 C-155.16674561 315.33562744 -153.95849121 314.85875488 -152.71362305 314.36743164 C-145.32130866 311.41531406 -138.01543829 308.32658022 -130.8125 304.9375 C-130.02343262 304.56794189 -129.23436523 304.19838379 -128.42138672 303.81762695 C-124.53836514 302.15992996 -124.53836514 302.15992996 -122 299 C-122.89853464 296.55720413 -123.8620504 294.23948734 -124.9375 291.875 C-125.2574292 291.15779785 -125.5773584 290.4405957 -125.90698242 289.70166016 C-128.38871364 284.19913563 -131.06315423 278.80650839 -133.80419922 273.4296875 C-137.20119406 266.71669436 -140.26917796 259.86294691 -143.35424805 253.00244141 C-145.67546108 247.85900192 -148.06415322 242.77835975 -150.625 237.75 C-155.5491932 228.07705991 -160.05417829 218.11492367 -164 208 C-164.66 208 -165.32 208 -166 208 C-166.2165625 206.824375 -166.2165625 206.824375 -166.4375 205.625 C-166.87798925 203.03578982 -166.87798925 203.03578982 -168 201 C-171.86124124 201 -174.73022862 202.45070047 -178.1875 204 Z M-90.25 306 C-91.32765625 306.556875 -92.4053125 307.11375 -93.515625 307.6875 C-94.33546875 308.120625 -95.1553125 308.55375 -96 309 C-95.01 311.31 -94.02 313.62 -93 316 C-91.58194169 315.71517632 -90.16559621 315.42181856 -88.75 315.125 C-87.56664062 314.88136719 -87.56664062 314.88136719 -86.359375 314.6328125 C-84.03168856 314.00849925 -82.10968048 313.15161458 -80 312 C-80 311.34 -80 310.68 -80 310 C-79.34 310 -78.68 310 -78 310 C-78.65585189 306.39007621 -78.65585189 306.39007621 -80 303 C-84.45651288 303 -86.35000997 303.96522259 -90.25 306 Z M-123.875 321.625 C-124.63353271 321.98529297 -125.39206543 322.34558594 -126.17358398 322.71679688 C-132.49085356 325.72851067 -138.76210069 328.82696451 -145 332 C-143.68 334.64 -142.36 337.28 -141 340 C-140.34 340 -139.68 340 -139 340 C-138.7421875 340.69480469 -138.484375 341.38960938 -138.21875 342.10546875 C-136.86111864 345.32984322 -135.24670987 348.28166232 -133.5 351.3125 C-132.8915625 352.38113281 -132.283125 353.44976562 -131.65625 354.55078125 C-131.1096875 355.35902344 -130.563125 356.16726563 -130 357 C-129.34 357 -128.68 357 -128 357 C-127.773125 357.65226562 -127.54625 358.30453125 -127.3125 358.9765625 C-125.56154422 363.01001421 -123.31026212 366.64029422 -121 370.375 C-120.25979614 371.57854126 -120.25979614 371.57854126 -119.50463867 372.80639648 C-116.15784404 378.21498386 -112.70663538 383.53961594 -109.13183594 388.79980469 C-106.3447711 392.92066361 -103.66752717 397.09969701 -101.02734375 401.31640625 C-100.31548376 402.4485715 -99.60348729 403.58065096 -98.89135742 404.71264648 C-97.48615807 406.94677683 -96.09430904 409.18760666 -94.70825195 411.43383789 C-89.42729057 420.38341674 -89.42729057 420.38341674 -80.83984375 425.62890625 C-75.95442532 425.45836803 -73.39673002 424.49966124 -70 421 C-68.46358595 417.92717191 -68.78718529 415.40503538 -69 412 C-70.1589967 408.45414728 -70.1589967 408.45414728 -71.8125 405 C-72.33457031 403.845 -72.85664063 402.69 -73.39453125 401.5 C-73.92433594 400.345 -74.45414062 399.19 -75 398 C-76.01308259 395.67201708 -77.00743556 393.3368484 -78 391 C-78.66 391 -79.32 391 -80 391 C-80.09152344 390.15953125 -80.18304688 389.3190625 -80.27734375 388.453125 C-81.10496454 384.49843971 -82.68364009 381.2812659 -84.5625 377.75 C-87.57962831 371.9121568 -90.37802634 366.02552845 -93 360 C-95.89592042 353.36717759 -98.99258512 346.87380163 -102.2746582 340.42382812 C-104.01994262 336.98808497 -105.67831121 333.54568451 -107.1875 330 C-109.01361145 325.78776958 -111.11922997 321.59606326 -114 318 C-117.56213339 318 -120.7065997 320.10630224 -123.875 321.625 Z " fill="#E9E9E9" transform="translate(272,48)"/>
<path d="M0 0 C4.00727546 3.1167698 6.05984893 5.98586094 7 11 C5.87357025 15.61836198 3.15999256 19.47692055 -0.74121094 22.2277832 C-2.82434943 23.49137251 -4.93231811 24.69247535 -7.0625 25.875 C-8.58819135 26.74442569 -10.11293034 27.61552469 -11.63671875 28.48828125 C-12.37970215 28.91189941 -13.12268555 29.33551758 -13.88818359 29.77197266 C-17.64480146 31.9564568 -21.26843146 34.33449438 -24.8984375 36.72265625 C-28.94625329 39.18294577 -32.33977855 39.39493402 -37 39 C-40.21542537 37.54395832 -42.28054817 36.40536989 -43.921875 33.19921875 C-45.21568827 29.13632953 -45.37632683 25.66967498 -43.390625 21.734375 C-40.35634424 17.95004731 -36.07309629 15.53898601 -32 13 C-31.01 12.34 -30.02 11.68 -29 11 C-28.01 11 -27.02 11 -26 11 C-26 10.34 -26 9.68 -26 9 C-23.32352649 7.52400358 -20.64284776 6.05722937 -17.953125 4.60546875 C-16.20044014 3.65262024 -14.45670824 2.68245533 -12.734375 1.67578125 C-8.16815786 -0.88597443 -5.21979039 -1.67427239 0 0 Z " fill="#E5E5E5" transform="translate(455,127)"/>
<path d="M0 0 C2.09374848 2.14447807 2.93828582 3.33012068 3.21484375 6.33203125 C2.56021539 12.18680603 1.30023253 16.10288076 -2 21 C-2.66 21 -3.32 21 -4 21 C-4.0928125 21.55429687 -4.185625 22.10859375 -4.28125 22.6796875 C-5.19184626 25.61932977 -6.6909941 27.64132387 -8.5 30.125 C-10.94482343 33.44469454 -10.94482343 33.44469454 -13 37 C-13.66 37 -14.32 37 -15 37 C-15.20625 37.721875 -15.4125 38.44375 -15.625 39.1875 C-17.3762703 42.7696438 -19.51442451 45.11901763 -23 47 C-26.59726944 47.89573442 -29.57289119 47.83838789 -32.80859375 45.9375 C-36.6375824 42.85227174 -37.83618106 40.99929556 -38.625 36.1875 C-38.52960091 29.53076348 -34.24060005 24.94461443 -30.39111328 19.87548828 C-27.35644204 15.78416774 -24.56885833 11.51407724 -21.71948242 7.29272461 C-21.27838135 6.64698486 -20.83728027 6.00124512 -20.3828125 5.3359375 C-19.99496582 4.76407715 -19.60711914 4.1922168 -19.20751953 3.60302734 C-13.91220044 -3.42670682 -7.60577589 -4.14333696 0 0 Z " fill="#E4E4E4" transform="translate(366,8)"/>
<path d="M0 0 C1.18464844 0.30035156 2.36929687 0.60070312 3.58984375 0.91015625 C18.53413465 4.82532722 18.53413465 4.82532722 23.46875 9.69140625 C25.42902585 13.60453266 25.18576322 17.50512569 24.5 21.75 C22.75 24.875 22.75 24.875 19.5 26.75 C9.62535466 28.76181229 -0.8236753 24.98911359 -10.28320312 22.36083984 C-12.11408855 21.85633815 -13.95445628 21.38638593 -15.796875 20.92578125 C-21.15348675 19.52169969 -25.00229801 18.16814988 -28.5 13.75 C-29.28700827 9.93559497 -29.28466387 6.56449738 -28.5 2.75 C-20.98472133 -7.13852457 -10.35528911 -2.76065923 0 0 Z " fill="#E9E9E9" transform="translate(472.5,292.25)"/>
<path d="M0 0 C0.99 0.66 1.98 1.32 3 2 C2.40832031 1.96519531 1.81664062 1.93039062 1.20703125 1.89453125 C-3.82713963 1.72207189 -6.81095467 1.91981961 -11 5 C-11.99 5.33 -12.98 5.66 -14 6 C-13.08486681 3.71216703 -12.34515354 2.26550272 -10.375 0.75 C-6.77298912 -0.38747712 -3.78245286 -0.24015574 0 0 Z " fill="#5F5F5F" transform="translate(459,289)"/>
<path d="M0 0 C0.66 0.33 1.32 0.66 2 1 C0.71520959 2.50589388 -0.57804082 4.00457375 -1.875 5.5 C-2.95394531 6.75296875 -2.95394531 6.75296875 -4.0546875 8.03125 C-4.69664063 8.6809375 -5.33859375 9.330625 -6 10 C-6.66 10 -7.32 10 -8 10 C-6.34908222 5.70761377 -3.26245434 3.1206085 0 0 Z " fill="#727272" transform="translate(36,261)"/>
<path d="M0 0 C0.99 0.33 1.98 0.66 3 1 C2.34 1 1.68 1 1 1 C0.71125 1.639375 0.4225 2.27875 0.125 2.9375 C-1 5 -1 5 -3 6 C-3.99 5.34 -4.98 4.68 -6 4 C-3 2 -3 2 0 2 C0 1.34 0 0.68 0 0 Z " fill="#6B6B6B" transform="translate(429,136)"/>
<path d="M0 0 C-1.15173355 2.46800047 -2.04783565 4.04783565 -4 6 C-4.99 5.34 -5.98 4.68 -7 4 C-2.25 0 -2.25 0 0 0 Z " fill="#7E7E7E" transform="translate(49,253)"/>
</svg>
