<?xml version="1.0" encoding="UTF-8"?>
<svg version="1.1" xmlns="http://www.w3.org/2000/svg" width="500" height="500">
<path d="M0 0 C1.32 0 2.64 0 4 0 C4 0.66 4 1.32 4 2 C4.57234375 2.2578125 5.1446875 2.515625 5.734375 2.78125 C8.21128995 4.11365942 10.1341166 5.65056118 12.25 7.5 C12.95640625 8.1084375 13.6628125 8.716875 14.390625 9.34375 C16 11 16 11 16 13 C16.53367187 13.21527344 17.06734375 13.43054687 17.6171875 13.65234375 C20.8792544 15.49728323 23.42657168 17.99762183 26.125 20.5625 C27.27952016 21.64368612 28.4344731 22.72441028 29.58984375 23.8046875 C30.16202637 24.3419043 30.73420898 24.87912109 31.32373047 25.43261719 C33.75729681 27.7081045 36.21768033 29.9513605 38.6875 32.1875 C39.47511719 32.90292969 40.26273437 33.61835937 41.07421875 34.35546875 C42.90589424 36.05325953 42.90589424 36.05325953 45 37 C45 37.66 45 38.32 45 39 C45.89211182 39.40883423 45.89211182 39.40883423 46.80224609 39.82592773 C48.94009989 40.96800049 50.41611757 42.12292732 52.1640625 43.78515625 C52.72867187 44.31560547 53.29328125 44.84605469 53.875 45.39257812 C54.4525 45.94365234 55.03 46.49472656 55.625 47.0625 C59.49326309 50.96570729 59.49326309 50.96570729 64 54 C64 54.66 64 55.32 64 56 C64.66 56 65.32 56 66 56 C66 56.66 66 57.32 66 58 C66.85271484 58.37511719 66.85271484 58.37511719 67.72265625 58.7578125 C70.33732713 60.18399662 72.24578783 61.85699857 74.4375 63.875 C75.30761719 64.67164062 76.17773438 65.46828125 77.07421875 66.2890625 C78.52248047 67.63097656 78.52248047 67.63097656 80 69 C81.68330595 70.55915648 83.36680116 72.11810497 85.05102539 73.67626953 C86.15487445 74.69874561 87.25702526 75.72305927 88.35717773 76.74951172 C90.9693659 79.17625042 93.60679954 81.50535649 96.390625 83.734375 C97.68226563 84.85585937 97.68226563 84.85585937 99 86 C99 86.66 99 87.32 99 88 C99.61875 88.309375 100.2375 88.61875 100.875 88.9375 C102.25 89.625 103.625 90.3125 105 91 C105 91.66 105 92.32 105 93 C105.8353125 93.37125 105.8353125 93.37125 106.6875 93.75 C109.42410913 95.22924818 111.67650869 96.93467439 114 99 C114 99.66 114 100.32 114 101 C114.66 101 115.32 101 116 101 C116 101.66 116 102.32 116 103 C116.53109375 103.21269531 117.0621875 103.42539063 117.609375 103.64453125 C120.92149372 105.52248092 123.50926872 108.08046292 126.25 110.6875 C127.41076815 111.77547642 128.57222458 112.86271897 129.734375 113.94921875 C130.29447266 114.47435059 130.85457031 114.99948242 131.43164062 115.54052734 C135.47961758 119.3074648 139.62075357 122.93683088 144 126.3125 C144.66 126.869375 145.32 127.42625 146 128 C146 128.66 146 129.32 146 130 C146.598125 130.28875 147.19625 130.5775 147.8125 130.875 C150 132 150 132 153 134 C153 134.66 153 135.32 153 136 C153.66 136 154.32 136 155 136 C155 136.66 155 137.32 155 138 C155.66 138 156.32 138 157 138 C157 138.66 157 139.32 157 140 C157.86625 140.4021875 157.86625 140.4021875 158.75 140.8125 C161.05550043 142.02929189 163.02056192 143.30333879 165 145 C165 145.66 165 146.32 165 147 C165.88534424 147.40206665 165.88534424 147.40206665 166.78857422 147.81225586 C169.01766904 149.00948994 170.55874782 150.26251195 172.3828125 152.00390625 C173.29740234 152.86725586 173.29740234 152.86725586 174.23046875 153.74804688 C174.85566406 154.34681641 175.48085938 154.94558594 176.125 155.5625 C177.37568283 156.75332327 178.62820262 157.94222111 179.8828125 159.12890625 C180.43340332 159.65556885 180.98399414 160.18223145 181.55126953 160.72485352 C182.99204489 162.10237804 182.99204489 162.10237804 185 163 C185 163.66 185 164.32 185 165 C185.58265625 165.268125 186.1653125 165.53625 186.765625 165.8125 C189.02786601 167.01480991 190.80576318 168.33825913 192.75 170 C193.36359375 170.515625 193.9771875 171.03125 194.609375 171.5625 C196 173 196 173 196 175 C196.59474121 175.27255615 197.18948242 175.5451123 197.80224609 175.82592773 C199.94009989 176.96800049 201.41611757 178.12292732 203.1640625 179.78515625 C203.72867187 180.31560547 204.29328125 180.84605469 204.875 181.39257812 C205.74125 182.21918945 205.74125 182.21918945 206.625 183.0625 C210.49326309 186.96570729 210.49326309 186.96570729 215 190 C215 190.66 215 191.32 215 192 C215.59474121 192.27255615 216.18948242 192.5451123 216.80224609 192.82592773 C218.94009989 193.96800049 220.41611757 195.12292732 222.1640625 196.78515625 C222.72867187 197.31560547 223.29328125 197.84605469 223.875 198.39257812 C224.74125 199.21918945 224.74125 199.21918945 225.625 200.0625 C229.49326309 203.96570729 229.49326309 203.96570729 234 207 C234 207.66 234 208.32 234 209 C234.66 209 235.32 209 236 209 C236 209.66 236 210.32 236 211 C236.86625 211.4021875 236.86625 211.4021875 237.75 211.8125 C240.05550043 213.02929189 242.02056192 214.30333879 244 216 C244 216.66 244 217.32 244 218 C244.86625 218.37125 244.86625 218.37125 245.75 218.75 C248.32939979 220.18299988 250.06121592 221.78424676 252 224 C252 224.66 252 225.32 252 226 C227.58 226 203.16 226 178 226 C178 292 178 358 178 426 C136.42 426 94.84 426 52 426 C52 376.5 52 327 52 276 C19 276 -14 276 -48 276 C-48 325.5 -48 375 -48 426 C-89.58 426 -131.16 426 -174 426 C-174 360 -174 294 -174 226 C-198.09 226 -222.18 226 -247 226 C-245.953173 221.81269198 -245.1823078 220.70013995 -242 218 C-241.34 218 -240.68 218 -240 218 C-239.67 217.01 -239.34 216.02 -239 215 C-237.44140625 213.39453125 -237.44140625 213.39453125 -235.5625 211.8125 C-234.94503906 211.28269531 -234.32757813 210.75289062 -233.69140625 210.20703125 C-232 209 -232 209 -230 209 C-230 208.34 -230 207.68 -230 207 C-228.34191655 205.52483679 -226.62153953 204.119287 -224.875 202.75 C-221.55743219 200.10704701 -218.37117264 197.5028587 -215.4375 194.4375 C-214.2309375 193.2309375 -214.2309375 193.2309375 -213 192 C-212.34 192 -211.68 192 -211 192 C-211 191.34 -211 190.68 -211 190 C-209.56640625 188.5546875 -209.56640625 188.5546875 -207.5625 186.875 C-203.58378677 183.50621429 -199.7229439 180.0296018 -195.8828125 176.50390625 C-194 175 -194 175 -192 175 C-191.67 174.01 -191.34 173.02 -191 172 C-189.46875 170.45703125 -189.46875 170.45703125 -187.5 168.8125 C-183.53968292 165.46696139 -179.70154669 162.00995663 -175.8828125 158.50390625 C-174 157 -174 157 -172 157 C-172 156.34 -172 155.68 -172 155 C-171.34 155 -170.68 155 -170 155 C-170 154.34 -170 153.68 -170 153 C-168.5390625 151.4921875 -168.5390625 151.4921875 -166.625 149.875 C-165.99851562 149.33617187 -165.37203125 148.79734375 -164.7265625 148.2421875 C-163 147 -163 147 -161 147 C-160.67 146.01 -160.34 145.02 -160 144 C-158.44140625 142.39453125 -158.44140625 142.39453125 -156.5625 140.8125 C-155.94503906 140.28269531 -155.32757813 139.75289062 -154.69140625 139.20703125 C-153 138 -153 138 -151 138 C-151 137.34 -151 136.68 -151 136 C-150.34 136 -149.68 136 -149 136 C-149 135.34 -149 134.68 -149 134 C-144.52941176 130 -144.52941176 130 -142 130 C-142 129.34 -142 128.68 -142 128 C-140.70703125 126.6953125 -140.70703125 126.6953125 -138.8125 125.125 C-134.94763071 121.84363673 -131.21186486 118.45151469 -127.5 115 C-119.91917536 107.98394843 -119.91917536 107.98394843 -116.375 104.8125 C-115.78460938 104.28269531 -115.19421875 103.75289063 -114.5859375 103.20703125 C-113 102 -113 102 -110 101 C-110 100.34 -110 99.68 -110 99 C-108.5390625 97.4921875 -108.5390625 97.4921875 -106.625 95.875 C-105.99851563 95.33617187 -105.37203125 94.79734375 -104.7265625 94.2421875 C-103 93 -103 93 -101 93 C-101 92.34 -101 91.68 -101 91 C-97.53846154 88 -97.53846154 88 -95 88 C-94.76539063 87.42894531 -94.53078125 86.85789062 -94.2890625 86.26953125 C-92.69927941 83.4705495 -90.8001626 81.8010705 -88.375 79.6875 C-87.48167969 78.90375 -86.58835938 78.12 -85.66796875 77.3125 C-84.78753906 76.549375 -83.90710938 75.78625 -83 75 C-81.88044922 74.01 -81.88044922 74.01 -80.73828125 73 C-77.97468833 70.55751025 -75.20616969 68.16301789 -72.3125 65.875 C-69.86035787 63.96062458 -69.86035787 63.96062458 -67.375 61.3125 C-65 59 -65 59 -62 58 C-62 57.34 -62 56.68 -62 56 C-61.34 56 -60.68 56 -60 56 C-60 55.34 -60 54.68 -60 54 C-58.3214487 52.50370821 -56.58041102 51.07707339 -54.8125 49.6875 C-51.80834456 47.31876164 -49.00401544 45.0040975 -46.32421875 42.26953125 C-44 40 -44 40 -41 39 C-41 38.34 -41 37.68 -41 37 C-39.35546875 35.30859375 -39.35546875 35.30859375 -37.1875 33.4375 C-36.47980469 32.81746094 -35.77210938 32.19742188 -35.04296875 31.55859375 C-33 30 -33 30 -30 29 C-30 28.34 -30 27.68 -30 27 C-28.35546875 25.30859375 -28.35546875 25.30859375 -26.1875 23.4375 C-25.12595703 22.50744141 -25.12595703 22.50744141 -24.04296875 21.55859375 C-22 20 -22 20 -19 19 C-19 18.34 -19 17.68 -19 17 C-14.52941176 13 -14.52941176 13 -12 13 C-11.67 12.01 -11.34 11.02 -11 10 C-9.2578125 8.2109375 -9.2578125 8.2109375 -7.125 6.375 C-6.07699219 5.45847656 -6.07699219 5.45847656 -5.0078125 4.5234375 C-3 3 -3 3 0 2 C0 1.34 0 0.68 0 0 Z " fill="#FCFCFC" transform="translate(248,37)"/>
<path d="M0 0 C0.33 0.66 0.66 1.32 1 2 C0.34 2 -0.32 2 -1 2 C-1.2475 2.5775 -1.495 3.155 -1.75 3.75 C-3.19393699 6.34908658 -4.73521987 8.07836838 -7 10 C-7.99 10 -8.98 10 -10 10 C-10 9.34 -10 8.68 -10 8 C-8.38542921 6.56418526 -6.70780925 5.19855217 -5 3.875 C-4.071875 3.15054688 -3.14375 2.42609375 -2.1875 1.6796875 C-1.465625 1.12539062 -0.74375 0.57109375 0 0 Z " fill="#7A7A7A" transform="translate(178,101)"/>
<path d="M0 0 C0.66 0.33 1.32 0.66 2 1 C-0.97 4.96 -0.97 4.96 -4 9 C-5.32 8.67 -6.64 8.34 -8 8 C-5.36 5.36 -2.72 2.72 0 0 Z " fill="#7B7B7B" transform="translate(127,146)"/>
</svg>
