<svg xmlns="http://www.w3.org/2000/svg" viewBox="0 0 100 100" preserveAspectRatio="xMidYMid" width="223" height="223" style="shape-rendering: auto; display: block; background: transparent;" xmlns:xlink="http://www.w3.org/1999/xlink"><g><g transform="rotate(0 50 50)">
  <rect fill="#68ff04" height="11" width="26" ry="5.5" rx="13" y="14.5" x="37">
    <animate repeatCount="indefinite" begin="-0.9705882352941176s" dur="1s" keyTimes="0;1" values="1;0" attributeName="opacity"></animate>
  </rect>
</g><g transform="rotate(10.588235294117647 50 50)">
  <rect fill="#68ff04" height="11" width="26" ry="5.5" rx="13" y="14.5" x="37">
    <animate repeatCount="indefinite" begin="-0.9411764705882353s" dur="1s" keyTimes="0;1" values="1;0" attributeName="opacity"></animate>
  </rect>
</g><g transform="rotate(21.176470588235293 50 50)">
  <rect fill="#68ff04" height="11" width="26" ry="5.5" rx="13" y="14.5" x="37">
    <animate repeatCount="indefinite" begin="-0.9117647058823529s" dur="1s" keyTimes="0;1" values="1;0" attributeName="opacity"></animate>
  </rect>
</g><g transform="rotate(31.764705882352942 50 50)">
  <rect fill="#68ff04" height="11" width="26" ry="5.5" rx="13" y="14.5" x="37">
    <animate repeatCount="indefinite" begin="-0.8823529411764706s" dur="1s" keyTimes="0;1" values="1;0" attributeName="opacity"></animate>
  </rect>
</g><g transform="rotate(42.35294117647059 50 50)">
  <rect fill="#68ff04" height="11" width="26" ry="5.5" rx="13" y="14.5" x="37">
    <animate repeatCount="indefinite" begin="-0.8529411764705882s" dur="1s" keyTimes="0;1" values="1;0" attributeName="opacity"></animate>
  </rect>
</g><g transform="rotate(52.94117647058823 50 50)">
  <rect fill="#68ff04" height="11" width="26" ry="5.5" rx="13" y="14.5" x="37">
    <animate repeatCount="indefinite" begin="-0.8235294117647058s" dur="1s" keyTimes="0;1" values="1;0" attributeName="opacity"></animate>
  </rect>
</g><g transform="rotate(63.529411764705884 50 50)">
  <rect fill="#68ff04" height="11" width="26" ry="5.5" rx="13" y="14.5" x="37">
    <animate repeatCount="indefinite" begin="-0.7941176470588235s" dur="1s" keyTimes="0;1" values="1;0" attributeName="opacity"></animate>
  </rect>
</g><g transform="rotate(74.11764705882354 50 50)">
  <rect fill="#68ff04" height="11" width="26" ry="5.5" rx="13" y="14.5" x="37">
    <animate repeatCount="indefinite" begin="-0.7647058823529411s" dur="1s" keyTimes="0;1" values="1;0" attributeName="opacity"></animate>
  </rect>
</g><g transform="rotate(84.70588235294117 50 50)">
  <rect fill="#68ff04" height="11" width="26" ry="5.5" rx="13" y="14.5" x="37">
    <animate repeatCount="indefinite" begin="-0.7352941176470589s" dur="1s" keyTimes="0;1" values="1;0" attributeName="opacity"></animate>
  </rect>
</g><g transform="rotate(95.29411764705883 50 50)">
  <rect fill="#68ff04" height="11" width="26" ry="5.5" rx="13" y="14.5" x="37">
    <animate repeatCount="indefinite" begin="-0.7058823529411765s" dur="1s" keyTimes="0;1" values="1;0" attributeName="opacity"></animate>
  </rect>
</g><g transform="rotate(105.88235294117646 50 50)">
  <rect fill="#68ff04" height="11" width="26" ry="5.5" rx="13" y="14.5" x="37">
    <animate repeatCount="indefinite" begin="-0.6764705882352942s" dur="1s" keyTimes="0;1" values="1;0" attributeName="opacity"></animate>
  </rect>
</g><g transform="rotate(116.47058823529412 50 50)">
  <rect fill="#68ff04" height="11" width="26" ry="5.5" rx="13" y="14.5" x="37">
    <animate repeatCount="indefinite" begin="-0.6470588235294118s" dur="1s" keyTimes="0;1" values="1;0" attributeName="opacity"></animate>
  </rect>
</g><g transform="rotate(127.05882352941177 50 50)">
  <rect fill="#68ff04" height="11" width="26" ry="5.5" rx="13" y="14.5" x="37">
    <animate repeatCount="indefinite" begin="-0.6176470588235294s" dur="1s" keyTimes="0;1" values="1;0" attributeName="opacity"></animate>
  </rect>
</g><g transform="rotate(137.64705882352942 50 50)">
  <rect fill="#68ff04" height="11" width="26" ry="5.5" rx="13" y="14.5" x="37">
    <animate repeatCount="indefinite" begin="-0.5882352941176471s" dur="1s" keyTimes="0;1" values="1;0" attributeName="opacity"></animate>
  </rect>
</g><g transform="rotate(148.23529411764707 50 50)">
  <rect fill="#68ff04" height="11" width="26" ry="5.5" rx="13" y="14.5" x="37">
    <animate repeatCount="indefinite" begin="-0.5588235294117647s" dur="1s" keyTimes="0;1" values="1;0" attributeName="opacity"></animate>
  </rect>
</g><g transform="rotate(158.8235294117647 50 50)">
  <rect fill="#68ff04" height="11" width="26" ry="5.5" rx="13" y="14.5" x="37">
    <animate repeatCount="indefinite" begin="-0.5294117647058824s" dur="1s" keyTimes="0;1" values="1;0" attributeName="opacity"></animate>
  </rect>
</g><g transform="rotate(169.41176470588235 50 50)">
  <rect fill="#68ff04" height="11" width="26" ry="5.5" rx="13" y="14.5" x="37">
    <animate repeatCount="indefinite" begin="-0.5s" dur="1s" keyTimes="0;1" values="1;0" attributeName="opacity"></animate>
  </rect>
</g><g transform="rotate(180 50 50)">
  <rect fill="#68ff04" height="11" width="26" ry="5.5" rx="13" y="14.5" x="37">
    <animate repeatCount="indefinite" begin="-0.47058823529411764s" dur="1s" keyTimes="0;1" values="1;0" attributeName="opacity"></animate>
  </rect>
</g><g transform="rotate(190.58823529411765 50 50)">
  <rect fill="#68ff04" height="11" width="26" ry="5.5" rx="13" y="14.5" x="37">
    <animate repeatCount="indefinite" begin="-0.4411764705882353s" dur="1s" keyTimes="0;1" values="1;0" attributeName="opacity"></animate>
  </rect>
</g><g transform="rotate(201.1764705882353 50 50)">
  <rect fill="#68ff04" height="11" width="26" ry="5.5" rx="13" y="14.5" x="37">
    <animate repeatCount="indefinite" begin="-0.4117647058823529s" dur="1s" keyTimes="0;1" values="1;0" attributeName="opacity"></animate>
  </rect>
</g><g transform="rotate(211.76470588235293 50 50)">
  <rect fill="#68ff04" height="11" width="26" ry="5.5" rx="13" y="14.5" x="37">
    <animate repeatCount="indefinite" begin="-0.38235294117647056s" dur="1s" keyTimes="0;1" values="1;0" attributeName="opacity"></animate>
  </rect>
</g><g transform="rotate(222.35294117647058 50 50)">
  <rect fill="#68ff04" height="11" width="26" ry="5.5" rx="13" y="14.5" x="37">
    <animate repeatCount="indefinite" begin="-0.35294117647058826s" dur="1s" keyTimes="0;1" values="1;0" attributeName="opacity"></animate>
  </rect>
</g><g transform="rotate(232.94117647058823 50 50)">
  <rect fill="#68ff04" height="11" width="26" ry="5.5" rx="13" y="14.5" x="37">
    <animate repeatCount="indefinite" begin="-0.3235294117647059s" dur="1s" keyTimes="0;1" values="1;0" attributeName="opacity"></animate>
  </rect>
</g><g transform="rotate(243.52941176470588 50 50)">
  <rect fill="#68ff04" height="11" width="26" ry="5.5" rx="13" y="14.5" x="37">
    <animate repeatCount="indefinite" begin="-0.29411764705882354s" dur="1s" keyTimes="0;1" values="1;0" attributeName="opacity"></animate>
  </rect>
</g><g transform="rotate(254.11764705882354 50 50)">
  <rect fill="#68ff04" height="11" width="26" ry="5.5" rx="13" y="14.5" x="37">
    <animate repeatCount="indefinite" begin="-0.2647058823529412s" dur="1s" keyTimes="0;1" values="1;0" attributeName="opacity"></animate>
  </rect>
</g><g transform="rotate(264.70588235294116 50 50)">
  <rect fill="#68ff04" height="11" width="26" ry="5.5" rx="13" y="14.5" x="37">
    <animate repeatCount="indefinite" begin="-0.23529411764705882s" dur="1s" keyTimes="0;1" values="1;0" attributeName="opacity"></animate>
  </rect>
</g><g transform="rotate(275.29411764705884 50 50)">
  <rect fill="#68ff04" height="11" width="26" ry="5.5" rx="13" y="14.5" x="37">
    <animate repeatCount="indefinite" begin="-0.20588235294117646s" dur="1s" keyTimes="0;1" values="1;0" attributeName="opacity"></animate>
  </rect>
</g><g transform="rotate(285.88235294117646 50 50)">
  <rect fill="#68ff04" height="11" width="26" ry="5.5" rx="13" y="14.5" x="37">
    <animate repeatCount="indefinite" begin="-0.17647058823529413s" dur="1s" keyTimes="0;1" values="1;0" attributeName="opacity"></animate>
  </rect>
</g><g transform="rotate(296.47058823529414 50 50)">
  <rect fill="#68ff04" height="11" width="26" ry="5.5" rx="13" y="14.5" x="37">
    <animate repeatCount="indefinite" begin="-0.14705882352941177s" dur="1s" keyTimes="0;1" values="1;0" attributeName="opacity"></animate>
  </rect>
</g><g transform="rotate(307.05882352941177 50 50)">
  <rect fill="#68ff04" height="11" width="26" ry="5.5" rx="13" y="14.5" x="37">
    <animate repeatCount="indefinite" begin="-0.11764705882352941s" dur="1s" keyTimes="0;1" values="1;0" attributeName="opacity"></animate>
  </rect>
</g><g transform="rotate(317.6470588235294 50 50)">
  <rect fill="#68ff04" height="11" width="26" ry="5.5" rx="13" y="14.5" x="37">
    <animate repeatCount="indefinite" begin="-0.08823529411764706s" dur="1s" keyTimes="0;1" values="1;0" attributeName="opacity"></animate>
  </rect>
</g><g transform="rotate(328.2352941176471 50 50)">
  <rect fill="#68ff04" height="11" width="26" ry="5.5" rx="13" y="14.5" x="37">
    <animate repeatCount="indefinite" begin="-0.058823529411764705s" dur="1s" keyTimes="0;1" values="1;0" attributeName="opacity"></animate>
  </rect>
</g><g transform="rotate(338.8235294117647 50 50)">
  <rect fill="#68ff04" height="11" width="26" ry="5.5" rx="13" y="14.5" x="37">
    <animate repeatCount="indefinite" begin="-0.029411764705882353s" dur="1s" keyTimes="0;1" values="1;0" attributeName="opacity"></animate>
  </rect>
</g><g transform="rotate(349.4117647058824 50 50)">
  <rect fill="#68ff04" height="11" width="26" ry="5.5" rx="13" y="14.5" x="37">
    <animate repeatCount="indefinite" begin="0s" dur="1s" keyTimes="0;1" values="1;0" attributeName="opacity"></animate>
  </rect>
</g><g></g></g><!-- [ldio] generated by https://loading.io --></svg>