<!DOCTYPE svg PUBLIC "-//W3C//DTD SVG 1.1//EN" "http://www.w3.org/Graphics/SVG/1.1/DTD/svg11.dtd">
<!-- Uploaded to: SVG Repo, www.svgrepo.com, Transformed by: SVG Repo Mixer Tools -->
<svg xmlns:dc="http://purl.org/dc/elements/1.1/" xmlns:cc="http://creativecommons.org/ns#" xmlns:rdf="http://www.w3.org/1999/02/22-rdf-syntax-ns#" xmlns:svg="http://www.w3.org/2000/svg" xmlns="http://www.w3.org/2000/svg" xmlns:sodipodi="http://sodipodi.sourceforge.net/DTD/sodipodi-0.dtd" xmlns:inkscape="http://www.inkscape.org/namespaces/inkscape" width="256px" height="256px" viewBox="0 0 30 30" version="1.1" id="svg822" inkscape:version="0.92.4 (f8dce91, 2019-08-02)" sodipodi:docname="people.svg" fill="#ffffff" stroke="#ffffff">
<g id="SVGRepo_bgCarrier" stroke-width="0"/>
<g id="SVGRepo_tracerCarrier" stroke-linecap="round" stroke-linejoin="round" stroke="#CCCCCC" stroke-width="0.36"/>
<g id="SVGRepo_iconCarrier"> <defs id="defs816"/> <sodipodi:namedview id="base" pagecolor="#ffffff" bordercolor="#666666" borderopacity="1.0" inkscape:pageopacity="0.0" inkscape:pageshadow="2" inkscape:zoom="12.610071" inkscape:cx="18.02637" inkscape:cy="5.0061764" inkscape:document-units="px" inkscape:current-layer="layer1" showgrid="true" units="px" inkscape:window-width="1366" inkscape:window-height="713" inkscape:window-x="0" inkscape:window-y="0" inkscape:window-maximized="1" showguides="true" inkscape:snap-global="false"> <inkscape:grid type="xygrid" id="grid816"/> </sodipodi:namedview> <metadata id="metadata819"> <rdf:rdf> <cc:work rdf:about=""> <dc:format>image/svg+xml</dc:format> <dc:type rdf:resource="http://purl.org/dc/dcmitype/StillImage"/> <dc:title> </dc:title> </cc:work> </rdf:rdf> </metadata> <g inkscape:label="Layer 1" inkscape:groupmode="layer" id="layer1" transform="translate(0,-289.0625)"> <path style="opacity:0.91000001;fill:#ffffff;fill-opacity:1;stroke-width:0.00030000000000000003;stroke-miterlimit:4;stroke-dasharray:none;stroke-opacity:1" d="m 18.853516,8.5820312 c -1.152452,0.0017 -2.230942,0.5679424 -2.886719,1.5156248 0.245759,0.621718 0.386719,1.293985 0.386719,1.998047 0,0.693735 -0.175104,1.331591 -0.4375,1.929688 0.648969,0.990797 1.753084,1.58837 2.9375,1.589843 1.942893,4.49e-4 3.518031,-1.574688 3.517578,-3.517578 -6.26e-4,-1.942127 -1.575448,-3.516074 -3.517578,-3.5156248 z M 22,16.345703 19.912109,19.611328 c 0.528723,1.153814 0.838621,2.416765 0.875,3.738281 l 0.02148,0.783203 -0.515625,0.587891 C 19.548375,25.571315 18.67911,26.30872 17.728516,26.933594 18.114724,26.97681 18.506361,27 18.904297,27 22.05905,27 24.881454,25.60556 26.806641,23.40625 26.721561,20.31573 24.843996,17.558273 22,16.345703 Z" transform="translate(0,289.0625)" id="path1013" inkscape:connector-curvature="0" sodipodi:nodetypes="ccsccccccccccscc"/> <path inkscape:connector-curvature="0" id="path1018" d="m 10.835941,297.64216 a 3.5167647,3.516759 0 0 0 -3.5167638,3.51676 3.5167647,3.516759 0 0 0 3.5167638,3.51676 3.5167647,3.516759 0 0 0 3.516765,-3.51676 3.5167647,3.516759 0 0 0 -3.516765,-3.51676 z m 3.145856,7.76332 -3.0703,4.80292 -3.1115121,-4.79948 c -2.8464838,1.20791 -4.7285466,3.96325 -4.8183795,7.05412 1.925237,2.20091 4.7480521,3.59746 7.9041346,3.59746 3.154753,0 5.97723,-1.39473 7.902417,-3.59403 -0.08508,-3.09053 -1.962364,-5.84843 -4.80636,-7.06099 z" style="opacity:0.91000001;fill:#ffffff;fill-opacity:1;stroke:#ff0000;stroke-width:0.00030000000000000003;stroke-miterlimit:4;stroke-dasharray:none;stroke-opacity:1"/> </g> </g>
</svg>