<?xml version="1.0" encoding="UTF-8"?>
<svg version="1.1" xmlns="http://www.w3.org/2000/svg" width="500" height="500">
<path d="M0 0 C2.5625 1.5625 2.5625 1.5625 4 3 C4 3.66 4 4.32 4 5 C4.66 5 5.32 5 6 5 C6.81837442 6.41328129 7.62946219 7.83078346 8.4375 9.25 C8.88996094 10.03890625 9.34242188 10.8278125 9.80859375 11.640625 C11.65811663 15.30328671 12.12501882 18.5023123 12.15821838 22.58111572 C12.17290161 23.95245667 12.17290161 23.95245667 12.18788147 25.35150146 C12.19363693 26.34700012 12.1993924 27.34249878 12.20532227 28.36816406 C12.21522186 29.42213379 12.22512146 30.47610352 12.23532104 31.56201172 C12.26691409 35.04652661 12.29168492 38.53105514 12.31640625 42.015625 C12.33697766 44.43129837 12.35797418 46.84696815 12.37937927 49.26263428 C12.43458055 55.62151181 12.48399847 61.98042173 12.53222656 68.33935547 C12.58245572 74.8278288 12.63813442 81.3162551 12.69335938 87.8046875 C12.8009172 100.53641788 12.90255254 113.26818843 13 126 C13.68707031 125.4946875 14.37414062 124.989375 15.08203125 124.46875 C15.98308594 123.8190625 16.88414062 123.169375 17.8125 122.5 C19.15248047 121.52546875 19.15248047 121.52546875 20.51953125 120.53125 C23 119 23 119 26 119 C26 118.34 26 117.68 26 117 C28.0625 115.44140625 28.0625 115.44140625 31 113.5625 C34.80121572 111.09942108 38.57432831 108.61934731 42.2890625 106.02734375 C43.00835937 105.52581787 43.72765625 105.02429199 44.46875 104.50756836 C45.89536744 103.51013146 47.31988615 102.50968538 48.7421875 101.50610352 C53.77977091 98 53.77977091 98 56 98 C56 97.34 56 96.68 56 96 C57.3894043 94.91845703 57.3894043 94.91845703 59.32421875 93.7578125 C60.02353516 93.33113281 60.72285156 92.90445313 61.44335938 92.46484375 C62.18392578 92.02269531 62.92449219 91.58054687 63.6875 91.125 C68.36981576 88.30473117 72.76785076 85.47790482 77 82 C79.04651897 80.56034352 81.10954914 79.14390492 83.1875 77.75 C84.23292969 77.04359375 85.27835937 76.3371875 86.35546875 75.609375 C89 74 89 74 91 74 C91 73.34 91 72.68 91 72 C92.74411301 70.76337138 94.54706485 69.60897865 96.375 68.5 C100.42943147 66.05783493 100.42943147 66.05783493 104 63 C104.99 63 105.98 63 107 63 C107 62.34 107 61.68 107 61 C109.0546875 59.51953125 109.0546875 59.51953125 111.875 57.8125 C115.48270295 55.57937754 119.03782676 53.32788245 122.5 50.875 C127.61005574 47.26984741 132.73350915 43.68516325 137.875 40.125 C139.12506836 39.24884033 139.12506836 39.24884033 140.40039062 38.35498047 C141.19380859 37.80729004 141.98722656 37.25959961 142.8046875 36.6953125 C143.51608887 36.20047363 144.22749023 35.70563477 144.96044922 35.19580078 C146.99183226 34.00478879 148.69867721 33.4390554 151 33 C151 32.34 151 31.68 151 31 C153.19848084 29.39142965 155.39594997 27.90310366 157.6875 26.4375 C159.07486828 25.53224466 160.46157594 24.62597617 161.84765625 23.71875 C162.89783936 23.03425781 162.89783936 23.03425781 163.96923828 22.3359375 C169.04945243 18.99391636 174.01100848 15.47588691 179 12 C181.3113918 10.39423218 183.62429866 8.79065951 185.9375 7.1875 C186.95714844 6.47980469 187.97679687 5.77210937 189.02734375 5.04296875 C196.59025107 -0.15466664 202.46682433 -4.1113356 212 -3 C218.1537229 -1.6626884 222.5450716 0.5450716 227 5 C227 5.66 227 6.32 227 7 C227.66 7 228.32 7 229 7 C232.0210669 12.6480816 233.1230423 17.12273787 233.13142776 23.4939537 C233.13526891 24.59214487 233.13911005 25.69033603 233.1430676 26.82180572 C233.14220112 28.0228602 233.14133463 29.22391468 233.14044189 30.46136475 C233.14489858 32.38160096 233.14489858 32.38160096 233.1494453 34.34062982 C233.15750332 37.89205575 233.1593042 41.44346146 233.16004276 44.99489546 C233.16189539 48.82596852 233.16944375 52.65703113 233.17617798 56.48809814 C233.18975303 64.86417084 233.19578465 73.24023874 233.20018864 81.61632061 C233.2029523 86.84724466 233.20718987 92.07816686 233.21169281 97.30908966 C233.2238841 111.79469054 233.23418388 126.28028994 233.2375679 140.76589584 C233.23778747 141.69278611 233.23800703 142.61967638 233.23823325 143.57465424 C233.23845153 144.50374827 233.23866981 145.43284231 233.2388947 146.3900907 C233.23933817 148.27275578 233.23978473 150.15542086 233.24023438 152.03808594 C233.2404558 152.97195067 233.24067723 153.90581541 233.24090537 154.86797908 C233.24485335 169.9997418 233.262308 185.13145637 233.2855939 200.26320049 C233.30931334 215.80220468 233.32177001 231.34118471 233.32293582 246.8802073 C233.32385221 255.60341023 233.32959564 264.32655039 233.34775543 273.04973602 C233.36316437 280.47763643 233.36827218 287.90545468 233.36001733 295.33336803 C233.35611371 299.12182817 233.35702626 302.91012289 233.37107468 306.69856262 C233.38617895 310.80939447 233.37793867 314.91985444 233.36749268 319.03070068 C233.37957728 320.81889807 233.37957728 320.81889807 233.39190602 322.64322066 C233.34251539 330.95230139 232.59738842 339.28499984 226.625 345.6484375 C220.27054973 350.93362931 213.94058421 352.75444693 205.7421875 352.34765625 C194.60860443 350.93613361 184.4709417 341.69524108 175.43188477 335.42016602 C171.64347472 332.79507297 167.82982667 330.21852944 163.97265625 327.6953125 C163.14386963 327.15156982 162.31508301 326.60782715 161.46118164 326.04760742 C159.84043119 324.9873109 158.21599225 323.93262789 156.58764648 322.8840332 C155.49238647 322.16606567 155.49238647 322.16606567 154.375 321.43359375 C153.72273438 321.01134521 153.07046875 320.58909668 152.3984375 320.15405273 C151.93695313 319.77321533 151.47546875 319.39237793 151 319 C151 318.34 151 317.68 151 317 C150.2575 316.71125 149.515 316.4225 148.75 316.125 C146.43260203 315.17697356 144.22082885 314.15154089 142 313 C142 312.34 142 311.68 142 311 C140.68 310.67 139.36 310.34 138 310 C138 309.34 138 308.68 138 308 C137.44183594 307.90460938 136.88367188 307.80921875 136.30859375 307.7109375 C133.43370288 306.82560732 131.48893596 305.39715816 129.0625 303.625 C126.47526685 301.74555706 123.96538475 299.98031588 121.18359375 298.3984375 C120.46300781 297.93695313 119.74242187 297.47546875 119 297 C119 296.34 119 295.68 119 295 C118.27272705 294.73372803 117.5454541 294.46745605 116.79614258 294.19311523 C114.00731307 293.00312049 111.75316554 291.63021814 109.26171875 289.91015625 C108.36727051 289.29624023 107.47282227 288.68232422 106.55126953 288.04980469 C105.60622559 287.39399414 104.66118164 286.73818359 103.6875 286.0625 C102.7063623 285.38735352 101.72522461 284.71220703 100.71435547 284.01660156 C98.73019556 282.65064979 96.74743126 281.28266841 94.76611328 279.91259766 C91.70018384 277.79269551 88.62763431 275.68261364 85.55395508 273.57397461 C83.00182925 271.82227503 80.45259538 270.06639144 77.90332031 268.31054688 C74.60353044 266.03844939 71.30163099 263.76942087 68 261.5 C66.66665718 260.58334714 65.33332383 259.66668049 64 258.75 C63.34 258.29625 62.68 257.8425 62 257.375 C56 253.25 56 253.25 53.99658203 251.87255859 C52.67475608 250.96386387 51.35281756 250.05533287 50.03076172 249.14697266 C46.52038347 246.73472608 43.01249727 244.31895007 39.5078125 241.8984375 C38.77433594 241.39248047 38.04085938 240.88652344 37.28515625 240.36523438 C35.87298106 239.39101225 34.46149299 238.41579317 33.05078125 237.43945312 C29.62706354 235.05210453 29.62706354 235.05210453 26 233 C26 232.34 26 231.68 26 231 C25.154375 230.773125 24.30875 230.54625 23.4375 230.3125 C20.52794749 229.20157995 18.7356549 228.22160569 16.28515625 226.41796875 C15.66648682 225.96574951 15.04781738 225.51353027 14.41040039 225.04760742 C13.94496826 224.70189697 13.47953613 224.35618652 13 224 C12.99641747 224.82384312 12.99641747 224.82384312 12.99276257 225.66432953 C12.93352353 239.05296345 12.85772989 252.44141651 12.76428509 265.82985687 C12.71959196 272.30452729 12.68033322 278.77913494 12.65356445 285.25390625 C12.62752136 291.50450976 12.5871111 297.75487157 12.53681374 304.00532532 C12.52015197 306.38785288 12.50863341 308.77042224 12.50238609 311.15299988 C12.49273784 314.4948347 12.46466847 317.83605212 12.43237305 321.17773438 C12.43380814 322.15885193 12.43524323 323.13996948 12.4367218 324.15081787 C12.33017342 331.9665909 10.65566288 338.522556 6 345 C5.34 345 4.68 345 4 345 C4 345.66 4 346.32 4 347 C-1.77505417 350.44282076 -5.82284435 352.14168068 -12.625 352.375 C-13.58664063 352.42398437 -14.54828125 352.47296875 -15.5390625 352.5234375 C-24.29950897 351.19849413 -31.6618631 345.39226486 -38.6875 340.3125 C-40.44694714 339.05983504 -42.20737148 337.80854153 -43.96875 336.55859375 C-44.8246875 335.94999512 -45.680625 335.34139648 -46.5625 334.71435547 C-49.8958344 332.36993699 -53.28241238 330.11336744 -56.6875 327.875 C-62.78937939 323.85515281 -68.75239249 319.65937877 -74.69775391 315.41210938 C-79.9739659 311.6647928 -85.35749728 308.12834368 -90.88696289 304.76538086 C-92.29057154 303.89402493 -93.65089403 302.95356777 -95 302 C-95 301.34 -95 300.68 -95 300 C-96.05574219 299.62875 -96.05574219 299.62875 -97.1328125 299.25 C-100.3814262 297.83371065 -102.98847516 296.05655713 -105.875 294 C-107.01347953 293.19672001 -108.15284084 292.39468866 -109.29296875 291.59375 C-110.18894775 290.96339844 -110.18894775 290.96339844 -111.10302734 290.3203125 C-114.4342548 288.00174389 -117.80983122 285.75014391 -121.1875 283.5 C-121.83509277 283.066875 -122.48268555 282.63375 -123.14990234 282.1875 C-126.48986772 279.95024573 -126.48986772 279.95024573 -130 278 C-130 277.34 -130 276.68 -130 276 C-130.721875 275.731875 -131.44375 275.46375 -132.1875 275.1875 C-134.99766383 274.00098638 -137.48416557 272.72514361 -140 271 C-140 270.34 -140 269.68 -140 269 C-141.98 268.34 -143.96 267.68 -146 267 C-146 266.34 -146 265.68 -146 265 C-147.09066772 264.60300903 -147.09066772 264.60300903 -148.20336914 264.19799805 C-151.01867678 262.99199939 -153.24998003 261.59875618 -155.74609375 259.83203125 C-156.65512451 259.19330078 -157.56415527 258.55457031 -158.50073242 257.89648438 C-159.46986572 257.20876953 -160.43899902 256.52105469 -161.4375 255.8125 C-163.50458249 254.35978616 -165.57230745 252.90798613 -167.640625 251.45703125 C-168.69443359 250.71662598 -169.74824219 249.9762207 -170.83398438 249.21337891 C-175.75891294 245.7703343 -180.71979796 242.38092868 -185.6875 239 C-186.60611816 238.37464355 -187.52473633 237.74928711 -188.47119141 237.10498047 C-199.52535704 229.58127651 -199.52535704 229.58127651 -210.71484375 222.26171875 C-211.55144531 221.72160156 -212.38804687 221.18148437 -213.25 220.625 C-213.97703125 220.16351563 -214.7040625 219.70203125 -215.453125 219.2265625 C-215.96359375 218.82179688 -216.4740625 218.41703125 -217 218 C-217 217.34 -217 216.68 -217 216 C-217.70511719 215.7421875 -218.41023438 215.484375 -219.13671875 215.21875 C-222.24269315 213.89669814 -224.95978065 212.30252146 -227.8125 210.5 C-228.78832031 209.8915625 -229.76414062 209.283125 -230.76953125 208.65625 C-231.50558594 208.1096875 -232.24164063 207.563125 -233 207 C-233 206.34 -233 205.68 -233 205 C-233.69222656 204.75507813 -234.38445312 204.51015625 -235.09765625 204.2578125 C-245.13941879 199.90593156 -254.2534321 192.86641974 -258.375 182.5625 C-259.84309341 174.19436756 -259.41402764 167.34322422 -254.76953125 160.07421875 C-249.68958447 153.55778316 -242.63686849 149.51590003 -235.76269531 145.13574219 C-233.48694917 143.66943041 -231.27136521 142.12742485 -229.0625 140.5625 C-222.79140179 136.13645217 -216.45589646 131.80482762 -210.12744141 127.46142578 C-207.99378961 125.99573383 -205.86186566 124.52756246 -203.73046875 123.05859375 C-200.40004033 120.76341346 -197.06653219 118.4727928 -193.72998047 116.18652344 C-192.17368039 115.11912034 -190.61988394 114.04806908 -189.06640625 112.9765625 C-188.26074219 112.42742187 -187.45507812 111.87828125 -186.625 111.3125 C-185.95726562 110.85488281 -185.28953125 110.39726562 -184.6015625 109.92578125 C-183 109 -183 109 -181 109 C-181 108.34 -181 107.68 -181 107 C-178.90235321 105.51593001 -176.81212528 104.15288775 -174.625 102.8125 C-173.32067273 101.99368592 -172.01729001 101.17336533 -170.71484375 100.3515625 C-170.07401855 99.9484082 -169.43319336 99.54525391 -168.77294922 99.12988281 C-164.74835281 96.56504776 -160.88486778 93.7695692 -157 91 C-154.83168436 89.45899247 -152.66223731 87.91961141 -150.49145508 86.38208008 C-148.98476421 85.31476754 -147.47933838 84.24566638 -145.9753418 83.17456055 C-135.85402429 76 -135.85402429 76 -133 76 C-133 75.34 -133 74.68 -133 74 C-131.47119141 72.76318359 -131.47119141 72.76318359 -129.3515625 71.3984375 C-128.59359375 70.90859375 -127.835625 70.41875 -127.0546875 69.9140625 C-126.25289062 69.40617187 -125.45109375 68.89828125 -124.625 68.375 C-123.8309375 67.859375 -123.036875 67.34375 -122.21875 66.8125 C-116.26802249 63 -116.26802249 63 -114 63 C-114 62.34 -114 61.68 -114 61 C-111.86426437 59.43195272 -109.72928517 57.98723113 -107.5 56.5625 C-106.11255763 55.65735823 -104.72586264 54.75107 -103.33984375 53.84375 C-102.26065674 53.13992187 -102.26065674 53.13992187 -101.15966797 52.421875 C-97.76041846 50.18388844 -94.41070081 47.87589284 -91.0625 45.5625 C-90.40282227 45.1077832 -89.74314453 44.65306641 -89.06347656 44.18457031 C-87.0416966 42.7906114 -85.02079248 41.39538996 -83 40 C-74.69493023 34.26858059 -66.38249046 28.55776461 -57.96484375 22.9921875 C-55.77208677 21.51879348 -53.60154378 20.02762977 -51.44140625 18.5078125 C-50.84674561 18.09031738 -50.25208496 17.67282227 -49.6394043 17.24267578 C-47.9625007 16.06162703 -46.28972634 14.87472182 -44.6171875 13.6875 C-42 12 -42 12 -40 12 C-40 11.34 -40 10.68 -40 10 C-38.3203125 8.7109375 -38.3203125 8.7109375 -36.125 7.375 C-35.04605469 6.70597656 -35.04605469 6.70597656 -33.9453125 6.0234375 C-32 5 -32 5 -30 5 C-30 4.34 -30 3.68 -30 3 C-19.6865476 -3.18807144 -11.24981978 -4.86239755 0 0 Z " fill="#FBFBFB" transform="translate(263,75)"/>
<path d="M0 0 C0.66 0.33 1.32 0.66 2 1 C1.07161713 2.31896465 0.13194268 3.62998689 -0.8125 4.9375 C-1.59560547 6.03384766 -1.59560547 6.03384766 -2.39453125 7.15234375 C-4 9 -4 9 -7 10 C-5.6062718 5.56541027 -3.39417765 3.12621626 0 0 Z " fill="#787878" transform="translate(14,229)"/>
<path d="M0 0 C-0.6875 2.375 -0.6875 2.375 -2 5 C-4.625 6.3125 -4.625 6.3125 -7 7 C-7.66 6.34 -8.32 5.68 -9 5 C-7.87926138 4.16094435 -6.75325453 3.32892169 -5.625 2.5 C-4.99851563 2.0359375 -4.37203125 1.571875 -3.7265625 1.09375 C-2 0 -2 0 0 0 Z " fill="#868686" transform="translate(144,141)"/>
</svg>
