<?xml version="1.0" encoding="UTF-8"?>
<svg version="1.1" xmlns="http://www.w3.org/2000/svg" width="500" height="500">
<path d="M0 0 C0.79245117 0.57975586 1.58490234 1.15951172 2.40136719 1.75683594 C8.21679349 5.93298466 14.05892351 10.04620452 20.04199219 13.97949219 C21.1415625 14.70305908 22.24113281 15.42662598 23.37402344 16.17211914 C25.53993519 17.59115921 27.70915916 19.00515799 29.88183594 20.41381836 C30.8628125 21.05810791 31.84378906 21.70239746 32.85449219 22.36621094 C34.17175293 23.22230957 34.17175293 23.22230957 35.515625 24.09570312 C36.13791992 24.58200195 36.76021484 25.06830078 37.40136719 25.56933594 C37.40136719 26.22933594 37.40136719 26.88933594 37.40136719 27.56933594 C38.078125 27.80265625 38.75488281 28.03597656 39.45214844 28.27636719 C43.13318354 29.89017198 46.27678156 31.99727529 49.58886719 34.25683594 C50.24653076 34.70019287 50.90419434 35.1435498 51.58178711 35.6003418 C56.2761228 38.77442126 60.92943969 42.00556846 65.54589844 45.29199219 C67.3725342 46.6127591 67.3725342 46.6127591 69.40136719 47.56933594 C69.40136719 48.22933594 69.40136719 48.88933594 69.40136719 49.56933594 C70.14386719 49.85808594 70.88636719 50.14683594 71.65136719 50.44433594 C73.96876516 51.39236238 76.18053833 52.41779505 78.40136719 53.56933594 C78.40136719 54.22933594 78.40136719 54.88933594 78.40136719 55.56933594 C79.47789551 55.95653809 79.47789551 55.95653809 80.57617188 56.3515625 C83.56063612 57.63798729 85.95179423 59.18001839 88.60449219 61.05371094 C89.58546875 61.74207031 90.56644531 62.43042969 91.57714844 63.13964844 C92.59164062 63.85894531 93.60613281 64.57824219 94.65136719 65.31933594 C96.65599033 66.73162527 98.66119101 68.14309521 100.66699219 69.55371094 C101.63902588 70.23780029 102.61105957 70.92188965 103.61254883 71.62670898 C106.82570774 73.86492184 110.0755148 76.04130205 113.34130859 78.20166016 C116.57511904 80.34859143 119.76910855 82.55239076 122.96386719 84.75683594 C124.35707853 85.71649723 125.75030823 86.67613187 127.14355469 87.63574219 C127.84706055 88.12059082 128.55056641 88.60543945 129.27539062 89.10498047 C131.36059871 90.54125494 133.44710538 91.97561866 135.53417969 93.40917969 C136.20682861 93.87122803 136.87947754 94.33327637 137.57250977 94.80932617 C138.90826309 95.72683781 140.24403756 96.64431868 141.57983398 97.56176758 C144.8004628 99.77537499 148.01707564 101.99444233 151.22558594 104.22558594 C151.82540283 104.64243652 152.42521973 105.05928711 153.04321289 105.48876953 C154.67123687 106.62120825 156.29806253 107.75536916 157.92480469 108.88964844 C160.26371064 110.55548028 160.26371064 110.55548028 162.40136719 111.56933594 C162.40136719 112.22933594 162.40136719 112.88933594 162.40136719 113.56933594 C163.24699219 113.79621094 164.09261719 114.02308594 164.96386719 114.25683594 C167.8734197 115.36775599 169.66571228 116.34773025 172.11621094 118.15136719 C172.73488037 118.60358643 173.3535498 119.05580566 173.9909668 119.52172852 C174.68911499 120.04029419 174.68911499 120.04029419 175.40136719 120.56933594 C175.40283375 120.01679705 175.40430031 119.46425816 175.40581131 118.89497566 C175.44295827 105.41381634 175.50232667 91.93290994 175.58526993 78.45195198 C175.62471759 71.93247623 175.65691961 65.413135 175.67236328 58.89355469 C175.68754734 52.5975072 175.72202497 46.30182963 175.76967621 40.00594711 C175.78447178 37.60832821 175.79240715 35.2106565 175.79325104 32.8129921 C175.79562782 29.44508029 175.82276672 26.07818485 175.85546875 22.71044922 C175.8479232 21.23553261 175.8479232 21.23553261 175.84022522 19.7308197 C175.94151721 12.95349442 177.48968515 7.67918294 180.40136719 1.56933594 C181.06136719 1.56933594 181.72136719 1.56933594 182.40136719 1.56933594 C182.40136719 0.90933594 182.40136719 0.24933594 182.40136719 -0.43066406 C183.06136719 -0.43066406 183.72136719 -0.43066406 184.40136719 -0.43066406 C184.40136719 -1.09066406 184.40136719 -1.75066406 184.40136719 -2.43066406 C190.96637197 -6.36966693 196.51493197 -9.21930758 204.40136719 -8.43066406 C211.62048932 -6.1799826 217.6003475 -2.61151348 223.71386719 1.75683594 C224.53927002 2.3341748 225.36467285 2.91151367 226.21508789 3.50634766 C227.86366131 4.66020454 229.5095015 5.81797815 231.15234375 6.97998047 C234.11579006 9.07420925 237.10145781 11.13443895 240.08886719 13.19433594 C241.10207031 13.896875 242.11527344 14.59941406 243.15917969 15.32324219 C246.9238506 17.93129734 250.69228277 20.53379127 254.46386719 23.13183594 C255.13442139 23.59468994 255.80497559 24.05754395 256.49584961 24.53442383 C259.66923844 26.7184734 262.85369163 28.87792666 266.08496094 30.97558594 C267.72658203 32.04292969 267.72658203 32.04292969 269.40136719 33.13183594 C270.37074219 33.751875 271.34011719 34.37191406 272.33886719 35.01074219 C273.01949219 35.52507812 273.70011719 36.03941406 274.40136719 36.56933594 C274.40136719 37.22933594 274.40136719 37.88933594 274.40136719 38.56933594 C274.95824219 38.67246094 275.51511719 38.77558594 276.08886719 38.88183594 C278.87827729 39.71112002 281.01527359 40.91232649 283.40136719 42.56933594 C283.40136719 43.22933594 283.40136719 43.88933594 283.40136719 44.56933594 C284.41263672 44.92511719 284.41263672 44.92511719 285.44433594 45.28808594 C289.11746717 46.8796144 292.35591471 48.90447677 295.71386719 51.06933594 C296.35904297 51.4728125 297.00421875 51.87628906 297.66894531 52.29199219 C299.28417981 53.32779336 300.84809602 54.44274142 302.40136719 55.56933594 C302.40136719 56.22933594 302.40136719 56.88933594 302.40136719 57.56933594 C303.46484375 57.9521875 303.46484375 57.9521875 304.54980469 58.34277344 C312.9835968 61.97045936 320.48379384 68.27253854 327.83105469 73.70996094 C330.63977448 75.74180078 333.51205835 77.65391105 336.40136719 79.56933594 C338.86599761 81.2476953 341.32105683 82.93988014 343.77636719 84.63183594 C345.20475028 85.61491222 346.63313577 86.59798505 348.06152344 87.58105469 C349.14651123 88.32814697 349.14651123 88.32814697 350.25341797 89.09033203 C355.58954081 92.76460256 360.9276246 96.43601362 366.26806641 100.10400391 C367.73343794 101.11054544 369.19859569 102.11739827 370.66357422 103.12451172 C373.03361025 104.75326113 375.40479123 106.38032969 377.77636719 108.00683594 C378.56027832 108.54526123 379.34418945 109.08368652 380.15185547 109.63842773 C384.27796998 112.46389166 388.4242122 115.25235703 392.60839844 117.99121094 C393.44387207 118.5397876 394.2793457 119.08836426 395.14013672 119.65356445 C396.74519104 120.70445097 398.35412627 121.74943907 399.96728516 122.7878418 C400.68158691 123.25585205 401.39588867 123.7238623 402.13183594 124.20605469 C403.08159302 124.82033325 403.08159302 124.82033325 404.05053711 125.44702148 C404.49631104 125.81738525 404.94208496 126.18774902 405.40136719 126.56933594 C405.40136719 127.22933594 405.40136719 127.88933594 405.40136719 128.56933594 C406.13613281 128.83746094 406.87089844 129.10558594 407.62792969 129.38183594 C410.33706824 130.54180512 412.40252895 131.83685049 414.77636719 133.56933594 C418.50106059 136.24419072 422.27072956 138.81778418 426.10571289 141.32983398 C444.12072352 153.15724402 444.12072352 153.15724402 447.15136719 163.00683594 C447.9911126 171.61422642 447.37322058 179.18624538 441.83886719 186.19433594 C437.89794213 190.39478533 433.19335796 193.42478775 428.40136719 196.56933594 C427.14408158 197.40932263 425.88762045 198.25054425 424.63183594 199.09277344 C421.47204428 201.209497 418.30776056 203.3191386 415.13378906 205.41455078 C413.97699105 206.18564077 412.82718002 206.96731493 411.68457031 207.75927734 C407.60844136 210.56933594 407.60844136 210.56933594 405.40136719 210.56933594 C405.40136719 211.22933594 405.40136719 211.88933594 405.40136719 212.56933594 C403.86767578 213.78491211 403.86767578 213.78491211 401.67480469 215.17480469 C400.85206055 215.70509277 400.02931641 216.23538086 399.18164062 216.78173828 C397.80540527 217.66659912 397.80540527 217.66659912 396.40136719 218.56933594 C394.3907497 219.915416 392.38305919 221.26587574 390.37792969 222.62011719 C388.26077354 224.04073683 386.14358558 225.46130907 384.02636719 226.88183594 C382.94742187 227.60951172 381.86847656 228.3371875 380.75683594 229.08691406 C379.20802734 230.12428711 379.20802734 230.12428711 377.62792969 231.18261719 C376.6954541 231.80950439 375.76297852 232.4363916 374.80224609 233.08227539 C372.40136719 234.56933594 372.40136719 234.56933594 369.40136719 235.56933594 C369.40136719 236.22933594 369.40136719 236.88933594 369.40136719 237.56933594 C367.13838265 239.20601144 364.88869606 240.71499104 362.52636719 242.19433594 C361.87539063 242.61457031 361.22441406 243.03480469 360.55371094 243.46777344 C355.669757 246.56933594 355.669757 246.56933594 353.40136719 246.56933594 C353.40136719 247.22933594 353.40136719 247.88933594 353.40136719 248.56933594 C351.98022461 249.69848633 351.98022461 249.69848633 350.00683594 250.91699219 C349.29849609 251.35720703 348.59015625 251.79742187 347.86035156 252.25097656 C347.11076172 252.70666016 346.36117188 253.16234375 345.58886719 253.63183594 C344.85087891 254.09138672 344.11289062 254.5509375 343.35253906 255.02441406 C340.36266646 256.86704143 337.74831492 258.45368669 334.40136719 259.56933594 C334.40136719 260.22933594 334.40136719 260.88933594 334.40136719 261.56933594 C332.42136719 262.22933594 330.44136719 262.88933594 328.40136719 263.56933594 C328.40136719 264.22933594 328.40136719 264.88933594 328.40136719 265.56933594 C324.0167518 268.56933594 324.0167518 268.56933594 321.40136719 268.56933594 C321.40136719 269.22933594 321.40136719 269.88933594 321.40136719 270.56933594 C320.41136719 270.56933594 319.42136719 270.56933594 318.40136719 270.56933594 C318.40136719 271.22933594 318.40136719 271.88933594 318.40136719 272.56933594 C316.17089844 274.22558594 316.17089844 274.22558594 313.21386719 276.06933594 C312.2509375 276.67777344 311.28800781 277.28621094 310.29589844 277.91308594 C307.70510023 279.39553997 305.1995455 280.54623601 302.40136719 281.56933594 C302.40136719 282.22933594 302.40136719 282.88933594 302.40136719 283.56933594 C300.45214844 284.97949219 300.45214844 284.97949219 297.71386719 286.63183594 C291.67578797 290.36601297 285.84807375 294.36268534 280.03222656 298.4296875 C271.19745456 304.60344733 262.30613719 310.69441428 253.40625 316.77368164 C248.93204798 319.83152856 244.47143884 322.90683142 240.02636719 326.00683594 C238.45884277 327.08740155 236.89120488 328.16780583 235.32177734 329.24560547 C233.86806404 330.2476438 232.41782057 331.25471845 230.96923828 332.26416016 C228.22636939 334.17083118 225.47110994 336.0585246 222.71386719 337.94433594 C221.41280029 338.85590454 221.41280029 338.85590454 220.08544922 339.78588867 C213.47339998 344.27241211 206.88131712 347.79713 198.71386719 347.38183594 C197.62074219 347.11371094 196.52761719 346.84558594 195.40136719 346.56933594 C193.57605469 346.13621094 193.57605469 346.13621094 191.71386719 345.69433594 C188.66647671 344.65937313 186.70882355 343.78449404 184.40136719 341.56933594 C184.40136719 340.90933594 184.40136719 340.24933594 184.40136719 339.56933594 C183.74136719 339.56933594 183.08136719 339.56933594 182.40136719 339.56933594 C182.40136719 338.90933594 182.40136719 338.24933594 182.40136719 337.56933594 C181.74136719 337.56933594 181.08136719 337.56933594 180.40136719 337.56933594 C176.97134632 330.37181146 175.81488854 324.36037457 175.85546875 316.42822266 C175.84513107 315.3636232 175.8347934 314.29902374 175.82414246 313.2021637 C175.79487568 309.71762625 175.79321865 306.23367375 175.79199219 302.74902344 C175.77699972 300.31949771 175.76027034 297.88998214 175.74188232 295.46047974 C175.69831688 289.09179193 175.6782335 282.7232416 175.66314697 276.35443115 C175.64353704 269.8452546 175.60157134 263.33622566 175.56152344 256.82714844 C175.48633824 244.07459443 175.43521575 231.32206327 175.40136719 218.56933594 C174.63050781 219.07464844 173.85964844 219.57996094 173.06542969 220.10058594 C172.06253906 220.75027344 171.05964844 221.39996094 170.02636719 222.06933594 C169.02863281 222.71902344 168.03089844 223.36871094 167.00292969 224.03808594 C164.40136719 225.56933594 164.40136719 225.56933594 162.40136719 225.56933594 C162.40136719 226.22933594 162.40136719 226.88933594 162.40136719 227.56933594 C160.48730469 228.94433594 160.48730469 228.94433594 157.77636719 230.56933594 C153.20581312 233.39146239 148.81102168 236.35873042 144.46386719 239.50683594 C126.34620466 252.56933594 126.34620466 252.56933594 123.40136719 252.56933594 C123.40136719 253.22933594 123.40136719 253.88933594 123.40136719 254.56933594 C121.81933594 255.83105469 121.81933594 255.83105469 119.58886719 257.25683594 C118.75742188 257.794375 117.92597656 258.33191406 117.06933594 258.88574219 C115.36634076 259.96039947 113.66085308 261.03112384 111.95214844 262.09667969 C105.22275596 266.31156717 98.74632009 270.81150164 92.32714844 275.48193359 C88.7951323 278.02036541 85.58669989 280.21525771 81.40136719 281.56933594 C81.40136719 282.22933594 81.40136719 282.88933594 81.40136719 283.56933594 C79.53808594 285.07714844 79.53808594 285.07714844 77.08886719 286.69433594 C76.28835937 287.23316406 75.48785156 287.77199219 74.66308594 288.32714844 C72.40136719 289.56933594 72.40136719 289.56933594 69.40136719 289.56933594 C69.40136719 290.22933594 69.40136719 290.88933594 69.40136719 291.56933594 C67.48730469 292.94433594 67.48730469 292.94433594 64.77636719 294.56933594 C59.43011348 297.86573071 54.33501291 301.40905209 49.26220703 305.10449219 C40.34739273 311.56933594 40.34739273 311.56933594 37.40136719 311.56933594 C37.40136719 312.22933594 37.40136719 312.88933594 37.40136719 313.56933594 C36.00292969 314.72338867 36.00292969 314.72338867 34.02636719 316.00292969 C33.29643555 316.48141357 32.56650391 316.95989746 31.81445312 317.45288086 C30.61997559 318.22208862 30.61997559 318.22208862 29.40136719 319.00683594 C27.7391944 320.09428634 26.07774983 321.18285054 24.41699219 322.27246094 C23.15338867 323.09907227 23.15338867 323.09907227 21.86425781 323.94238281 C18.25532464 326.32639656 14.70415775 328.79034134 11.15136719 331.25683594 C9.20113481 332.59519766 7.24902877 333.93078202 5.29638672 335.265625 C4.0350101 336.13341051 2.77812577 337.00776299 1.52587891 337.88867188 C-6.67953196 343.6539328 -13.99316297 348.43644308 -24.44238281 347.24511719 C-31.27807914 345.77093543 -36.12636411 342.93278402 -40.59863281 337.56933594 C-44.85315512 330.11852158 -45.1693853 322.8404795 -45.10656738 314.4375 C-45.11280735 313.14560886 -45.11904731 311.85371773 -45.12547636 310.52267838 C-45.14207998 306.96153701 -45.13396473 303.40082778 -45.12153149 299.83968544 C-45.11244624 295.989571 -45.12646787 292.13952863 -45.13745117 288.28942871 C-45.15520407 280.7568639 -45.15141086 273.22445884 -45.13980061 265.69188786 C-45.13075381 259.5680568 -45.12954767 253.4442704 -45.13389587 247.32043457 C-45.13450881 246.44766255 -45.13512174 245.57489052 -45.13575324 244.67567086 C-45.13703219 242.9024515 -45.13832905 241.12923216 -45.13964361 239.35601282 C-45.15103994 222.74258665 -45.13795057 206.12924887 -45.11644214 189.51583719 C-45.09857202 175.2719071 -45.10167639 161.02810742 -45.12011719 146.78417969 C-45.14154064 130.22874175 -45.1499414 113.67338123 -45.13766813 97.11793137 C-45.13639398 95.35136669 -45.1351365 93.584802 -45.13389587 91.8182373 C-45.13327877 90.94913546 -45.13266167 90.08003361 -45.13202587 89.18459535 C-45.12857739 83.07067644 -45.13439047 76.95680678 -45.14381409 70.84289551 C-45.15505185 63.38838904 -45.15195677 55.93405098 -45.13069111 48.47956371 C-45.1202045 44.67876102 -45.11601774 40.87823874 -45.12928772 37.07743835 C-45.14347369 32.95177384 -45.12649464 28.82681259 -45.10656738 24.70117188 C-45.11549027 23.50758183 -45.12441316 22.31399178 -45.13360643 21.08423233 C-45.05719437 12.92000453 -43.80910091 5.79725431 -38.77441406 -0.83300781 C-25.91774035 -11.4256132 -13.07362997 -9.36543249 0 0 Z " fill="#FBFBFB" transform="translate(48.5986328125,80.4306640625)"/>
</svg>
