<?xml version="1.0" encoding="UTF-8"?>
<svg version="1.1" xmlns="http://www.w3.org/2000/svg" width="500" height="500">
<path d="M0 0 C1.06881603 -0.00226556 2.13763207 -0.00453111 3.23883647 -0.00686532 C6.81448336 -0.01318726 10.39009216 -0.01237711 13.96574402 -0.0115509 C16.53179981 -0.01454351 19.09785516 -0.01794628 21.66390991 -0.02172852 C27.90743538 -0.03002086 34.15095141 -0.03278271 40.39448193 -0.03334089 C45.47146189 -0.03381671 50.54843874 -0.03587476 55.62541771 -0.03904152 C70.03183806 -0.04784412 84.43825097 -0.0524615 98.84467403 -0.05171105 C99.62068181 -0.05167109 100.3966896 -0.05163113 101.19621277 -0.05158997 C102.36165195 -0.05152864 102.36165195 -0.05152864 103.55063536 -0.05146609 C116.14024108 -0.0510597 128.72981687 -0.06062845 141.31941394 -0.07472833 C154.25832795 -0.08910465 167.19722738 -0.09599783 180.13614959 -0.09513456 C187.39554622 -0.09480303 194.65491149 -0.09753079 201.91430092 -0.10831261 C208.74248029 -0.11838932 215.57059245 -0.11806942 222.3987751 -0.11079597 C224.90210822 -0.10975075 227.40544548 -0.11210933 229.90877151 -0.11815643 C233.3315926 -0.12588793 236.75418568 -0.1212237 240.17700195 -0.11352539 C241.16252715 -0.11866895 242.14805236 -0.12381252 243.16344196 -0.12911195 C255.67852189 -0.06710848 266.04823154 2.82603784 276.27897644 10.13371277 C277.26897644 10.79371277 278.25897644 11.45371277 279.27897644 12.13371277 C279.27897644 12.79371277 279.27897644 13.45371277 279.27897644 14.13371277 C280.16456238 14.51076355 280.16456238 14.51076355 281.06803894 14.89543152 C289.00266331 19.33938192 293.35965407 29.98898565 296.27897644 38.13371277 C298.39800908 48.49423881 298.56883956 58.94757183 298.5377655 69.48551941 C298.5404841 71.06105713 298.54404985 72.63659358 298.54838562 74.21212769 C298.55740802 78.44348189 298.55400805 82.67473722 298.54762745 86.90609288 C298.54251519 91.36245669 298.54727319 95.81881281 298.55039978 100.275177 C298.55402397 107.75350951 298.54928078 115.23180232 298.53971863 122.71012878 C298.52883309 131.32220802 298.53236666 139.93419253 298.54337144 148.54626948 C298.55248386 155.97858453 298.55371046 163.41087129 298.5484941 170.84319013 C298.54539657 175.26555299 298.54490348 179.6878715 298.55156708 184.1102314 C298.55739798 188.26938948 298.55324005 192.42842688 298.54177856 196.5875721 C298.53916257 198.10234376 298.53984376 199.6171258 298.54430389 201.13189316 C298.59411144 219.78541524 296.52960515 234.03126783 285.27897644 249.13371277 C284.61897644 250.12371277 283.95897644 251.11371277 283.27897644 252.13371277 C282.61897644 252.13371277 281.95897644 252.13371277 281.27897644 252.13371277 C281.27897644 252.79371277 281.27897644 253.45371277 281.27897644 254.13371277 C279.03659911 255.74810596 276.8064863 257.23687657 274.46647644 258.69621277 C273.82387878 259.10806824 273.18128113 259.51992371 272.51921082 259.94425964 C267.98014251 262.81821895 264.78507348 264.25638037 259.43996334 264.27072716 C258.43693926 264.2758017 257.43391518 264.28087624 256.40049642 264.28610456 C255.29546304 264.28660232 254.19042965 264.28710007 253.0519104 264.28761292 C251.29455436 264.2941863 251.29455436 264.2941863 249.50169617 264.30089247 C246.24412291 264.31196173 242.98657676 264.31850638 239.72898901 264.32307363 C236.21756034 264.32902992 232.70614939 264.34063982 229.19473267 264.35136414 C220.71088496 264.37588929 212.22703139 264.39051638 203.74315915 264.4034242 C201.34655816 264.40713635 198.94995776 264.41110957 196.55335736 264.41517687 C181.66860833 264.44041591 166.78385838 264.46246758 151.89909267 264.47490501 C148.45109491 264.47783469 145.00309718 264.48079635 141.55509949 264.48381042 C140.69812204 264.48455648 139.8411446 264.48530253 138.95819814 264.48607118 C125.08144947 264.49871974 111.20482909 264.53193579 97.32814037 264.57361226 C83.07853988 264.61605749 68.82900501 264.63960312 54.57934147 264.64482558 C46.5798091 264.64823699 38.5804771 264.65996004 30.581007 264.69292831 C23.76679217 264.72096578 16.95281878 264.73191209 10.13855075 264.72073285 C6.66376581 264.71555534 3.18948621 264.71837261 -0.28522491 264.74319839 C-4.0589277 264.76587426 -7.83136252 264.75759989 -11.60507202 264.74171448 C-12.69449036 264.75559657 -13.78390869 264.76947865 -14.9063397 264.78378141 C-24.91091973 264.68021725 -33.18125268 260.64011404 -40.72102356 254.13371277 C-45.72102356 249.00680922 -45.72102356 249.00680922 -45.72102356 246.13371277 C-46.38102356 246.13371277 -47.04102356 246.13371277 -47.72102356 246.13371277 C-48.85379624 243.94994511 -49.97725145 241.76214149 -51.09602356 239.57121277 C-51.41313293 238.96213074 -51.73024231 238.35304871 -52.05696106 237.72550964 C-52.36633606 237.11642761 -52.67571106 236.50734558 -52.99446106 235.87980652 C-53.41864319 235.05500793 -53.41864319 235.05500793 -53.85139465 234.21354675 C-56.17928871 228.64607637 -57.01624459 223.38382602 -56.99517822 217.39405823 C-57.00303324 216.27178485 -57.00303324 216.27178485 -57.01104695 215.12683928 C-57.02597045 212.63607404 -57.02675041 210.14551562 -57.02742004 207.65470886 C-57.03504683 205.86198076 -57.04347521 204.06925592 -57.05264282 202.27653503 C-57.07454694 197.41672117 -57.08338154 192.55697021 -57.08846927 187.69711256 C-57.0921185 184.65616205 -57.09836158 181.61522787 -57.10547066 178.5742836 C-57.12995358 167.95167064 -57.14301399 157.3291064 -57.14656067 146.70646667 C-57.15019223 136.8277083 -57.18006349 126.9492613 -57.22196525 117.07059801 C-57.25674145 108.57179948 -57.2721104 100.07310375 -57.2728067 91.5742346 C-57.27359719 86.50612484 -57.28223023 81.43833229 -57.31080437 76.37029648 C-57.33710996 71.59799333 -57.33912095 66.82626754 -57.32314873 62.05392456 C-57.32134397 60.31135415 -57.32793606 58.56874958 -57.34396744 56.82625198 C-57.49375043 39.47524408 -52.85337552 26.39215171 -40.59602356 13.69621277 C-33.74185689 7.13371277 -33.74185689 7.13371277 -28.72102356 7.13371277 C-28.72102356 6.47371277 -28.72102356 5.81371277 -28.72102356 5.13371277 C-27.03696087 4.47896869 -25.3485602 3.83537871 -23.65852356 3.19621277 C-22.718797 2.83656433 -21.77907043 2.47691589 -20.81086731 2.10636902 C-13.93655761 -0.05760458 -7.14290726 -0.01114828 0 0 Z M3.84147644 51.69621277 C1.15445349 55.88796857 0.86978862 59.22345892 1.27897644 64.13371277 C3.16245404 68.68389629 5.76649801 72.54810047 9.95133972 75.18913269 C14.67861432 77.10751169 20.03419292 76.46544223 25.06852722 76.4493866 C27.14051757 76.44623325 29.21106935 76.46967879 31.28288269 76.49504089 C32.5990155 76.49568542 33.91514832 76.49632996 35.27116394 76.49699402 C37.07109802 76.50146545 37.07109802 76.50146545 38.90739441 76.50602722 C43.28280855 76.02286237 46.65653737 74.61356218 49.92350769 71.63371277 C53.75288458 66.71571703 54.89343662 63.38072463 54.27897644 57.13371277 C52.19692131 52.1293112 49.47044001 48.54232146 44.60490417 45.92546082 C39.38495377 44.14858466 33.79116923 44.56576855 28.34147644 44.63371277 C27.10462097 44.61824402 25.8677655 44.60277527 24.59342957 44.58683777 C16.11332004 44.62309692 9.93008722 45.29536554 3.84147644 51.69621277 Z M69.87931824 50.74943542 C66.79220611 55.15920421 66.38369448 59.91892608 67.27897644 65.13371277 C68.83449215 69.81866837 71.47840965 72.93715314 75.86418152 75.31999207 C80.83493197 76.99500079 86.09950687 76.72019356 91.29484558 76.65519714 C93.34088653 76.63371896 95.38343207 76.65507185 97.42936707 76.68058777 C98.73196472 76.67543152 100.03456238 76.67027527 101.37663269 76.66496277 C102.55749451 76.66045105 103.73835632 76.65593933 104.95500183 76.65129089 C110.57601644 75.77603926 114.60596808 72.35087052 118.27897644 68.13371277 C119.73232654 63.77366248 120.21617336 59.47670506 118.48991394 55.16105652 C115.50073313 49.78737652 113.0584326 47.08927782 107.27897644 45.13371277 C102.68384731 44.69033292 98.08089606 44.76344308 93.46647644 44.75871277 C91.59765808 44.72197449 91.59765808 44.72197449 89.69108582 44.68449402 C82.23061866 44.66074717 75.1461571 44.6695576 69.87931824 50.74943542 Z " fill="#FCFCFC" transform="translate(56.72102355957031,117.86628723144531)"/>
<path d="M0 0 C5.95768023 4.96793658 9.29278427 9.41023752 10.04939842 17.23761082 C10.06571689 18.68310091 10.06593135 20.12883328 10.05282593 21.57435608 C10.0575059 22.37647992 10.06218587 23.17860376 10.06700766 24.00503439 C10.07892132 26.67808774 10.06951481 29.35062497 10.06005859 32.02368164 C10.06412588 33.945992 10.06946864 35.86830003 10.07598877 37.79060364 C10.08964856 43.00122808 10.08436943 48.21167403 10.07485151 53.42230153 C10.06724913 58.87809173 10.07430204 64.33386679 10.07901001 69.78965759 C10.0844654 78.95005026 10.07728111 88.11037032 10.06298828 97.27075195 C10.04665734 107.85961982 10.05195441 118.44831442 10.0684675 129.0371781 C10.08208269 138.13204495 10.084002 147.22685966 10.07615149 156.32173342 C10.0714758 161.75225346 10.07084742 167.18269206 10.08076096 172.61320686 C10.08942895 177.71780571 10.08341165 182.82218118 10.06607819 187.92675591 C10.06211268 189.79964197 10.06324848 191.67254684 10.06986618 193.54542542 C10.07806909 196.10276712 10.06777548 198.65939385 10.05282593 201.21669006 C10.05951809 201.95706404 10.06621026 202.69743802 10.07310522 203.46024758 C9.98731222 211.03119227 6.71958785 216.03193276 1.671875 221.33203125 C0.681875 221.33203125 -0.308125 221.33203125 -1.328125 221.33203125 C-1.328125 221.99203125 -1.328125 222.65203125 -1.328125 223.33203125 C-8.95820608 226.20548732 -15.48245451 227.32204674 -23.34765625 224.64453125 C-28.56813848 222.26288559 -33.05654362 218.72136416 -37.62890625 215.296875 C-40.03431054 213.54590777 -42.46248611 211.97987692 -45.015625 210.45703125 C-46.10875 209.75578125 -47.201875 209.05453125 -48.328125 208.33203125 C-48.328125 207.67203125 -48.328125 207.01203125 -48.328125 206.33203125 C-49.318125 205.99171875 -49.318125 205.99171875 -50.328125 205.64453125 C-54.21471128 203.94414975 -57.96492317 201.93580041 -61.328125 199.33203125 C-61.328125 198.67203125 -61.328125 198.01203125 -61.328125 197.33203125 C-62.04943604 197.07099609 -62.77074707 196.80996094 -63.51391602 196.54101562 C-66.42777278 195.28922256 -68.76325214 193.81014495 -71.35546875 191.98828125 C-72.30631348 191.32352783 -73.2571582 190.65877441 -74.23681641 189.97387695 C-75.23632324 189.26706787 -76.23583008 188.56025879 -77.265625 187.83203125 C-78.29091309 187.11168701 -79.31620117 186.39134277 -80.37255859 185.64916992 C-82.42010713 184.20904896 -84.46603953 182.76662714 -86.51025391 181.32177734 C-88.92707735 179.61521773 -91.35013306 177.91828919 -93.77734375 176.2265625 C-95.0029503 175.36637838 -96.22824316 174.50574702 -97.453125 173.64453125 C-99.00386719 172.55591797 -99.00386719 172.55591797 -100.5859375 171.4453125 C-105.04326161 168.01025218 -108.56255062 164.4154507 -111.453125 159.58203125 C-112.16855469 158.41414063 -112.16855469 158.41414063 -112.8984375 157.22265625 C-117.41416659 148.0924936 -117.78814658 139.5689397 -117.76171875 129.52734375 C-117.76628998 127.99713919 -117.77159832 126.46693667 -117.77760315 124.93673706 C-117.78649822 121.74110537 -117.78415318 118.54572405 -117.77416992 115.35009766 C-117.76269355 111.28299268 -117.78288899 107.21675773 -117.81208706 103.14976692 C-117.830558 99.99244828 -117.83013497 96.83533389 -117.82444954 93.6779747 C-117.8242976 92.17986711 -117.83023462 90.68174452 -117.84274101 89.18368912 C-117.90714 80.20589893 -117.17410996 72.56425703 -113.328125 64.33203125 C-113.02228989 63.67381378 -112.71645477 63.01559631 -112.40135193 62.33743286 C-111.74389629 60.98542691 -111.04301042 59.65456928 -110.328125 58.33203125 C-109.668125 58.33203125 -109.008125 58.33203125 -108.328125 58.33203125 C-108.07869141 57.27628906 -108.07869141 57.27628906 -107.82421875 56.19921875 C-105.62683316 51.98804115 -102.27814697 50.0601223 -98.390625 47.45703125 C-97.62806396 46.93399414 -96.86550293 46.41095703 -96.07983398 45.87207031 C-93.83925089 44.34320741 -91.58677831 42.8340357 -89.328125 41.33203125 C-88.7196875 40.92500977 -88.11125 40.51798828 -87.484375 40.09863281 C-78.82170339 34.33203125 -78.82170339 34.33203125 -76.328125 34.33203125 C-76.328125 33.67203125 -76.328125 33.01203125 -76.328125 32.33203125 C-74.94213867 31.22216797 -74.94213867 31.22216797 -72.99609375 30.01171875 C-72.28533691 29.56280273 -71.57458008 29.11388672 -70.84228516 28.65136719 C-70.0744873 28.17473633 -69.30668945 27.69810547 -68.515625 27.20703125 C-63.38644992 23.9631918 -58.32924132 20.70185559 -53.453125 17.08203125 C-49.18322419 13.91652584 -44.81153647 11.01342285 -40.30078125 8.203125 C-38.07874045 6.80449485 -35.88486596 5.38315722 -33.69921875 3.9296875 C-33.07764893 3.51968506 -32.4560791 3.10968262 -31.81567383 2.68725586 C-30.60185913 1.88552401 -29.39183989 1.07800675 -28.1862793 0.26391602 C-20.04931121 -5.07512646 -8.15431106 -5.8420987 0 0 Z " fill="#FAFAFA" transform="translate(490.328125,140.66796875)"/>
<path d="M0 0 C-1.46966358 3.39859703 -3.38037514 5.64963709 -6 8.25 C-6.70125 8.95640625 -7.4025 9.6628125 -8.125 10.390625 C-10 12 -10 12 -12 12 C-10.53033642 8.60140297 -8.61962486 6.35036291 -6 3.75 C-5.29875 3.04359375 -4.5975 2.3371875 -3.875 1.609375 C-2 0 -2 0 0 0 Z " fill="#8C8C8C" transform="translate(22,128)"/>
<path d="M0 0 C0.66 0.33 1.32 0.66 2 1 C0.90344712 2.31886772 -0.20253423 3.62990057 -1.3125 4.9375 C-1.92738281 5.66839844 -2.54226563 6.39929688 -3.17578125 7.15234375 C-5 9 -5 9 -8 10 C-8 9.34 -8 8.68 -8 8 C-7.34 8 -6.68 8 -6 8 C-5.7525 7.236875 -5.505 6.47375 -5.25 5.6875 C-3.89004442 2.7635955 -2.68414174 1.69995644 0 0 Z " fill="#7E7E7E" transform="translate(388,191)"/>
<path d="M0 0 C0.66 0.33 1.32 0.66 2 1 C0.35 2.98 -1.3 4.96 -3 7 C-4.32 6.34 -5.64 5.68 -7 5 C-4.69 3.35 -2.38 1.7 0 0 Z " fill="#797979" transform="translate(463,140)"/>
</svg>
